<mxfile host="app.diagrams.net" agent="Mozilla/5.0 (Macintosh; Intel Mac OS X 10_15_7) AppleWebKit/605.1.15 (KHTML, like Gecko) Version/18.1 Safari/605.1.15" version="26.0.1">
  <diagram name="Page-1" id="2mnPNbhcrwRO6y8FpUSv">
    <mxGraphModel dx="1226" dy="810" grid="1" gridSize="10" guides="1" tooltips="1" connect="1" arrows="1" fold="1" page="1" pageScale="1" pageWidth="1100" pageHeight="850" math="0" shadow="0">
      <root>
        <mxCell id="0" />
        <mxCell id="1" parent="0" />
        <mxCell id="97Ax9wVYBVqeigITnSwv-20" value="" style="rounded=1;whiteSpace=wrap;html=1;fillColor=none;" vertex="1" parent="1">
          <mxGeometry x="130" y="140" width="930" height="410" as="geometry" />
        </mxCell>
        <mxCell id="97Ax9wVYBVqeigITnSwv-1" value="" style="shape=image;verticalLabelPosition=bottom;labelBackgroundColor=default;verticalAlign=top;aspect=fixed;imageAspect=0;image=data:image/png,iVBORw0KGgoAAAANSUhEUgAAAOEAAADhCAMAAAAJbSJIAAAAkFBMVEX////zeyHycgDycADybwDzeBnzeh3ydADzdxPzdQvzdxL1lVf84dP5vZv/+/j//fv7073959v97OL+9O74uZX5xaj2om/1mF76zbX3qHr3r4X+8uv72MT2nGT2n2r5wKH0jUj728n4tI7849X0iUD1kVD0hTjzfyj0ikL3p3fzfif3rIL6yq/0hjnyZwD3soltWHV2AAAQOUlEQVR4nO1daVMqOxOWZCazgOyrLIIIHgRf/v+/e0HxHJl5Ouksg94qn6pbdT94hnTS6eXpTnJ394tf/OIXv/hvoNldt8eD+6eH/X6y3z8c+4Nxu9HtffewQqDXOPQXz0kkhUiSLMvzPD39l2dZIoSM5Hb0MFhNv3uQrujN+vNXKZIsVTUKKs4zIePNsd397uFaYjqeqEhkMS1bQU4hk8Wg893D5mJ13MpEs3AE0kyqYbv53aM3odUeCpFbS/e5mKmI6oefbIBmJ/FSR+k+ESdRffwzV7L7lHqLdxFSiOHqu8Upob2JnJUTIJUvg5+0kM1HJeJw4r1DJWL/Uzxl7yizgMv3D3m0+AkOpLeXWRXivSOVo++WsfkQ5ZXJd0Ycjb413LkX1a3fJ9Jo920echxXL98Zuex/i3ydpazEviAktdntBTxGof2DDkqObqyqq9ptFPQfUjG4pYCT6GYK+g9ic7MIYH3zBfxALA+3EbBvv4BKxek7c3FBkmR5rOz1QM5b1cvXWwqrQcV5ImS+rU+eHsft2arRaKxm7fGgv58/KynZPMAFeVx5jLPK+SZUpYkUm4dDo0fMfHPd7o+yyCZlVrJig/PI1tA4ka+7AyfimraPb1KwaQ85rFLAheSNIhVyxJLuE732LpfMpczeKnONzT8sG3pO0WcOFqHxEEsWSRDnFW3GrmL8vsqietvZ4K12ImEspIoqCeLWidnGxCLu+7nl5mHLWcioAnszM9uYWP4ZB/ilxpwhYxQ83RhHRvmiTSiCrLuLjDLKh0A/dsHBJGAsN+uAvzfdGddRTAL+nlFAJbahCc7u3JSehRTRJGCWh9h/RTSehX7rhxOxrRcwjo4VxcOHRK+qItBeXOkFFM/VBcPNhZ4pCUPgdLRuIpb3IX6ExCzXspUh/OJUy2dnb1Wzmc25Nhb2j25aLxqLpqJ9CCEMOGhrItJ3j2w0ez0Wt+H4ui8aTVWpX41qktDfrjCLKWKh4RXiZ58vHzR7QCxCjZ+Be409zzxS4o7mu/Ip3PgZmGnchjux0ayRX1VRFVGMDh1N8uZsbUaklVHy9nX26SspolJunxyQm1AJTR7RiBItorbbcO6aL+SM5042oUsLmOi0omFgq+K6o4R3zS0ponTZNG+UUiihjWMaJsY4cuY5WqSISth7rj41UCX0+9ooYeYeLjfJCCu11gzaUciG/l8aJXS1C2c0a5SI1lWbZ+pLxlDXKGHNJ9ibUmyjEnbR2yM1TLN3NUsYj5wFPCkXZcjSuc1netQoGVm1WcJa5BPQkoyDlY8eEjYrZ+xnhoSZV9ZM2UD1wv9Gg5gm9cIgZBgS2owFYE4kU+KR/QnKzESchJ4hoZ1ClfFKWBu2sRkTY+QFDhwJU7/Miwq3ci7lQExRzsvDOBLWIr/EnAqZJS9cGuAhqhrv11kSZvwtA0GkPUzdIMi1yBDLfIIlodp6iHdCkxokx1IMMDWTcfllloTG2M+ENtZT1iLiNheujnIlTHce4p0xx3oqzYt4wAOM2Pa9EWVFoMFIz0Z1IuxizNwLXEKLoG/avy/iAbjoxJePJ0JnY0Q4w/ot/ahR0EcSv3l98YQtXIvMxAFuYDjjkbS+4wgW0ZuOxzUxlegjSxwtqNxzMGvwWXYAQqIOV0PoU+E9DGoN/4gBtLsNk20GThUN6g99oWcqcEYfdFMJb1J5AT2GVv1xzO0/FKj98R/vr8KdqFV/aGd8mKO/QAkZwzsbABdRJfQ/mELFDtJC/gjUNPduNMA7UdCsOhrGyZCG6LToAYXyNtGEOdWEJzC3N7pQHtAG0Ew2Eyu4iGREOIUb14sY+4cDMNPxxvuzMMgkTSNU0tiKhqTRRGbavYTxCThmUk2XSEmDVQpH4Ov+O6CJ1RSbDvjHQVzFO9pgEQN8HeaJAi8LGkIoO3MGipf8+1VmaNSEH9rBRDVY01oThbxeJYwPoFINQQMhEjFASPoJHET6W2q8MMiEwcTJNzH8B+y5PEsY7x9GapogfzFG+0QGa23G7EhNvXp/GUmYouZatNoq9v79C/pU+5i/N0LWFFKDaBt6c36foBs7PEsYdzhaQvsbhcYBAscLMP1DjcUOcPaAG4IbllnpMGKs6bHxLWFg7QMWDAV4oXxFS3eYyf9HkAUB4TQqbEOL5ICJtlfbt4QBNyKYtzfEhoU5WbzWN/unvkcmYaZfyhFb0BuGCdkwOf0Plp0wZUAJi54cGqQoyEkRsjfnE94lDJT2laIaZEqVd2nhDExvXf2OZ7kU8tileBPVRb03yDvoPty/8N0NrME/AWfhHxXfkcXa69F42mykgCUOCOU2QSIa1s0JniUMtBFKITUk+wIkFg+s49+epR/oCKLCH6HIx7MseobuPMMX+J0KwalZMeJEu8W7/HV394d5x0TkZ2uQBhbMVxOR7v7JKdF8VIZnCQOFnAW+De5VT9U5zRvn+oCP38q8fgi1QhTsJKzvOR8b+AQmnyD8apSoAFsIalDw6p1941aCFG5NvxIGcvmFWBA1MuW+uRPscUwXA+hAWB1pFBCLVsisUVTgW8DE5JPoIavmSa4jur4QmCJuPD96CYiL7OeCMiw1qDS0hNdTVoGEkHx6707A5LBPjAiHfy0hmoTcqyiDyaeP5gS4QX1KGIwFCr6G2BVeNAcZd69y6Xdo6Q6RT59REuRmfWokDAmhLfVoPMMnNv4y+Kge7FMuhd7iOrtdAwl98lJIPuV/awSwrElVbhlAfGLBH6KYxqNH4R5J8LUvEubFdmezvgLR2QUqFMalS9cfxOST/OIOEGnikZCizxXi0h7KLZwpMEg+XZ3yxOGAcwkDkW3F2gzKD113PiafrhcI9wi6ljDmiIMpFAtgo4QjFw2vsywcLIONH87l0mfEYhRCeWT8HLsjIflUYmLgJYmuDC26/KFYl0Qeys16Y/KpRMSg5nZXtYEdZbLwRxNgHNxKT7jBsRQf4bq3WwkD+brSnr5HHa4uoTckn1DjAOyic7M1KIAocTAo7nGJ9vFhHWRBcE+5U3sLXJ5izIloDBd3AcknbEBg9uHU/YHIxJJvRS7foU0Ckk8qgfaDONvhYGsQ5V1uxkCRor0xhbktcX4Yt6E7mDdI/JRdHdr41uW1JxQ4kLwrpPwdShi4s61UkkC0sa2pwdEmmbvDZiaHEgZslClPFDKmtscFYLApSEVoQTW1T7xRtAKSW9yyYTWfkHzSHbSCfTa6Iy8Y6NQzCh2QhlmlM/h8tU7p0KE9+xIG/Aryq8jUWBVnIPmkPwIOb2qyzbwhc1esAJ8B026L88iQfDIEDfhkvGUJA5lkOEuQHbIgoiH5ZEj4cAnDjsaE1CRkJuFxC37CBsknY4EOtqHbmXCoBzhWgQ6Ya9jgTBLh2hfgy92A5tC6gF0U/GG4Y7lHPiD5xLh/C+p20cDNdsn/qL0JA2qi3grnk1kIhuQTp64LT2ZdhUGzYSJSRabGsN5KeTlo2HjWFLIunFILPpn1aSia7cXlbQ9ytlBfLBmpwPuvWLwCJJ/ocO0r8FHec8tWczz/8ugnMdMwFCN9FGT4OLwCJJ+YhDJRLh2P69HVDcmE30L8Eu1uIGXFacOG5FPE5CPwYZqkeCErTv6J44fkkDEFYayXQPIp46YIiGQBwMd38NlsOpAiiGhDEAXJJ6W4TXHQ3KNhIJ2A9wDrYiJoTU19NXDlJf/oJCyXloECMYKv06Qz+GCEnpCC5JNNKRCSEGUgywX3sNbE4YRN3zqEFMXuSljmA2xl94p3lT6pxUcjdJVLmHTZ9fzi1owSyp6ZGK02RsEJm2YnwvKDZQ5rPq/w8dUiL4Z3oSEdwi5Rk5PC6oNtFx6+LKiEYsKAn90z+W9MRJNsBiSfEtvGGLyfyhJe2+d7qG9GvhVTnpTxh51PDvUj3pty15uFuLDNzGPhu+yInm9IPnEvWPwC3JpRGsRVWEMM1HxyGTuMWoJqiZB8yhwajehjwl8QJ//7EtYQ7/skDP6TOLKLYjdkrVXscoZBc07446u5SOaHrw4Rv9vAui6IuEQY7GBIPkmnNlGtrYkT+XIsEDV7rNe8WhJ0AKctXLSQ0I2ljl2i1HH98+KNBiX9IXSUWRGgDrUW+fl6Fpfh2riFSl+1OJPqAT2H2SJeoOXswjOIE4MFe7pa1svYuB7RKtma0+KJennxPkDcd80uyxM+0fGdDCau9sZ58fYzMr6kLkrm13So0+VVvsX7N8hUqRCbR13cRx2Is7gwlDyvFO6qkzLEZfHiSVtPYDapZ6BtQg3qzJnKqnvEap+lQi7vzTXZJXGayu4UE/UES+x77JpGJ9q1OfM3pCI8u4dYyLOfnNcRKgX5Oozt9Y5EzHByOaGurHED+WCo/V2h5HtdoZ7GdAL9YKj92TfqjYubv7j2FTNyULwiyTVIPQ30+qcD6BdR3e6z3ZIZzTetoubhbOF0ZooK3mrhn4xmQfNor/VjTxfQT8vVRJBLQexGQwuYOQfMC5o+SW7tF4+0gLHHTVOah2Tz7c1eIT1jriEBfO6Unmpexo4T3xus+Oi9acg45wcV30E7oPNDlt43rTGxyjRElfA07I86nk/OK3py/Bp93bvZmfc9xzvNi8C1vFZhwnhBb6Pj4VLvyzvu7kY6PlpFVTv/sfbN6vjV9ya0M56193ck2+oej39/d1xX0lBJkIsdm3T49j6NUXUBziHRzq7pwVA26KcxP5CpUJeAXqOz1Dirs4AONSACPaUXUclNeFXt7aThV/kvNDF+zSDiSVWHga46vaDZl9oLM4O/K90zKOrJbMtdOBlb94mpohh0Bc/QvKf8V8Zo6P3oyDt6T4J4OO6LgCEuk7tG69lcp01l3fsW+bvOTph/KU7CTOY1Rox+gljU7n2UtTX+IxnXZ6Uv1SQ2E04tWmVRfewYaKx2iTaC+US2DBHJIDzqQuB/iIUYjW0nuTWbZIJ3+5mskGBYFftaSSGTaNlvsGe6Mxhd+rnNUFGIS0dJTF94PWhnITMhlk9tk0Xore5HudQlgIXPut/xwsSQ2fD6MZxcSLGcPLbXvWIm2Wp2VoOHeh6JjKqWIWTP1ZMnh4g93xcx09NqyqS2XY4Wk/1+PxnON2+vmZQiy22Eq5011PvBPQ66W11STI9OxXGa5nmepnHMbCktIM383S0PR55NDQwl61U5iTLWfIMTDKn/K4xWONruRk8oObopP3tC948+PQ2LLK4mydbjkN1KVdPI7wpHZzSPEf+SWXfE0Shsdm2D6aLy7ajk8nbVA4ROvVIZY7m9lQuksR5xMjpH+d6+w8CU0RlGRtbBAWm0rDrI5qP3lLFSVz5UJodVkukOGC8j3pkCDlL5en9rB89A95hzs1gtYiGGP0c9C1jtMuG3kqmQI1ea50ZY7ZVFxn69eKc8cvHDxftA57EubKU8SSefn36scpbRatyPEskiKFScJzJaPs1+oGkxodvuz1/EmaxIgaSnlD8/LZysbY7jH+YX7NDszgZPi82LiOQJ4ozz/0Sytpw/PLbX/4Vtx0Vv2u2sG43GutPtlqi3X/ziF7/4xU/G/wGDIuwhvBbNxQAAAABJRU5ErkJggg==;" vertex="1" parent="1">
          <mxGeometry x="160" y="50" width="90" height="90" as="geometry" />
        </mxCell>
        <mxCell id="97Ax9wVYBVqeigITnSwv-2" value="" style="shape=image;verticalLabelPosition=bottom;labelBackgroundColor=default;verticalAlign=top;aspect=fixed;imageAspect=0;image=https://1000logos.net/wp-content/uploads/2017/05/Reddit-Logo.png;" vertex="1" parent="1">
          <mxGeometry x="170.01" y="260" width="106.66" height="60" as="geometry" />
        </mxCell>
        <mxCell id="97Ax9wVYBVqeigITnSwv-3" value="" style="shape=image;verticalLabelPosition=bottom;labelBackgroundColor=default;verticalAlign=top;aspect=fixed;imageAspect=0;image=data:image/png,iVBORw0KGgoAAAANSUhEUgAAAN0AAADkCAMAAAArb9FNAAAAwFBMVEX///8zZ5EAAAAuZI8mYI0qYo4XWokrY44fXYslYIwSWIggXov09PQZW4n8/Pzs8PTX19dsbGyZmZl7e3tHR0fk6u/t7e3Ly8tUfJ/i4uIwMDC5ubm/v7+csMRniajc4+qQp72rq6u4xtSNjY2ioqJAQECsvc0+bpZcXFyamprT09NlZWW0tLQ2NjZYf6F8mLMdHR3I096EhIRUVFQSEhKEnrdxkK20w9ImJiaXrMHR2uMbGxsASoBHc5nEz9sQEBA3BWk7AAAZ6UlEQVR4nNVdaWOiPBDWIhRB8Ww96m1r7Wlba6996/7/f/UKmckBAZLYw30+bVcImWQyVyaTQuHgEPQ6t1dPjWW7//D36Ojo+aHfXjbm54Pr09/u2X4Irqet9lEG7lrT+m93Mg2n9cHteXM+nzeb59OzQb1X4X7s3bbesghjaDevv7xrlfrZ+VNjfdF/eP67Y5a79k1rPh3UK/lvhi93rm76sp4+tFtXg15l0FIjjKIx+DLCgk5zmcEtjatB5oroPEkJ2xeNzheQVm9eqHyrPZeT2Gl8B2WAKzXOSUNv/kfjY8+tW5HCytyo02/Lp6vb3bI8rQQhTnv1zm5V3MiWZctcjg4y5Zccf546AQ6N/rS9Nc47Gf3tDeaJLjV6RrRNdaZNwHK66+GphLaLZWvePD8/v5o/tZYXf8Uf182OEqNdx5dKS58/Bwnalk/TUIjDzFROe53B+VwuCXfL8En8u9+6rQeJj5x2pq278OdnNuMqqNyuhdav9GjriQzQzhpW2sVUNAaZo1s/N9DQp1f88D/oaMBzsW8qw1qfpqyy5ddpphg6/AS2VN+qcHx9cavxud5tgsK5oUwLauPH7etiuMNiMdt+nEhHuHfDvvRHjQGuuXHXZ5neFTc2TZ3FBDjZDlfdYtVxXNf1S6VyueT7btXxrO5m8ZHg8B43f+cKrU/p021DgxXXfEtKW1CpVNKJrr3855VsqyiBZZeq3uVmG6Oww9bfTW7XmvTZ5HoJxh+zxfB9ssNw8bpjl1RhUbltxzklGL9OXj6LVc9xHM/zi5+jzXA7TtJZ23i2jDgk0fXuF7WULvdzdAM1Lhqx7m7fR/aOW3y/XC7bdrlUcnfs4vjd1XB7kt1kiPGwu3vZ5ifF2rXiOtXPzawWe7i28qSTR9/0vfsZ/0KPiexM1U6H4Uzs26fnltLYxXWc7maWQeLJe9GRvx014HuXk8fYYHSdLPJ2b7n+Oz8ozOLLUA23kiEIFpdeat/wYyXfKb0sxrI2P+69UvbbxaJddVcfwluv1Qz2jFByNhx9HUpequeA0vKNse9uFfg5pNEu7ihczWKc/9F11F63q8Uh/27wkjN9u1e8CVu2lX4OeRVcm+ydd6+sRhqjsDtkQ1p5yV5BIkreiufvWf64lEqv7PllNnmgqN4ocR/HuTyVhHtPG9y6eewVg+29cPTVum7uG9V7NpbUv5dpsiv4jfLHxtOnrWh3aYMrg/dtb8Pxp0IPbI9NH5UtSQOpFyM86PoGxFmXOPOVT4OJD7tbXbBOzRQGyHlJkPecUKPgFUyRLS41uYrARUapWUbvR218MuE7Lucv3PIl5U4krx0jbkD+e4kjX9QQBwweyvUTVUkrg+W9037VLo/zn3epOsG19yRSJy66wGzmfOxVzd2DuLChTzodwadCV7wtPo6SUxCcU5Ev742Is1CiGM4835RD+1voKmglj5pmqPeSU9eHv4YmAmX3CRzwz3xuym9sQjt3r0Meau0mI+5WmM6xiSrYSYMhtLbSMwHSmhux2dNhTjTKmNwk03kBf10a8ZV1Ca/Pcm0oNZQ/aQdVmMFDSdsQV1mhLkzdIt9EkLYOgqtmNvMSHBeR1QOVhYzaqCIuM5CjD9CSGXHHyEhmEkkK65iqT4VOUeYBtYCODvkL4hJDMxvDAwvxtWr0ekqHbSRPRRaUXgRWhCjnQNB1hgYUtByYvZ4Gy0Kz81VhNePSEwyWBm+mvBquOpi6yddSxxmum3w1Za8E1uRJhWBD10hg4qr7OpFCe0ydjs/8nrnkyTPOIbjm9cOJWfdQYG6+TqQgcDUVavm8WSXdAH8nijQ3eS4dGmli61O5A/qoovWa7w+VFjw3zsN/rnnLxYwxfXAhJ19ipcThYcjsJY8zcOGRjcwGI/R6n3XjELYOvmPqwuZBLwR51KEdv6S2V49fdlsjiYlD9mpmfecCGb+wzRs+mxeaoXlCLOi7faSC86Es1cxAHcdRTv888ticqgTyr9Y+/YMRG38TYxaZns4TWx5hwStK3ZK3qI2Wnb35TpkSwSrC5OW4nrBCzyl1fzj/YGxkJLog076LL0P4EyAv2z0TqQtQZJ7uIVQc8t2P72PMIjP1sgVLnLpT3iYz0uX26NsZs8gFbTI1slMRObPOU2ckMv2FCs/sjepMgUXiUmXA22Ejkw46YyVxtj9g8u4zOhnXCLe8+2OkEErk3dk3qXIKf5g/eVXyCHWBznl1Z/JRXHarr3cPYnCD3DmA4APxWN9wEufkf02GH+1y814rfwkmL12yW7C9tkY7c855CEZWMPhUX++3JuHDykudu2PwBd9wuREWJRGjigl1IITNVKUeXGCT1MBWeUIeOMLl1uAMMTOxRxp8/+KASta3UvkElBNENJsx6kx2S1/2UCa6cB6zlQLYhODUTZE6kux2YjB3uNR/ZOpQPqc5kg4x1yCE2dmfM/2Z+ZJVg2WHeU3eDo7zH7EjKylMBjGCc2o770sdWCqiij0u+a7jhJlX8ow2ddiOfz95fRyf1HY4+diCnyc3NjHWzuKZ+8pMsMqZpWL7nv3yPtt16GT8+Lq5zE81SoXl+hMxBwnxLrXYUSGQHIBnSh3oOwOp4ghC2nbsVSytrTa0DW0091JIduOxlTaJMoBMXZjQyNsqBts/yAyhHWa57kY61EPFdCoR3lDWFsGH1M12yQ4lOHVzSh3kCOh3wgIpdm/ZzmfqUNdUtvZjDZelSXWAR+k8wCqB3ddw6+CczmLBxEfAYF/RG8lXCEBl71sgzoqnbQqYSamDbQTw7sL9uzM0OEPkBdSSKEMsrps10tEDek07PHHB+HH2GmV/j2HDS2r3oTa8YQ55Zz/fvMTlPfGojB+320eO5IqW6OQSOj4ml17V9UPs1N5/pEmpM1kWhEo0YUIoeqEt3VzJWhsvXopO1Xdd13FHNG02N47Mwab5DttLx7btEs0ETyggDuCtnFIbmlqcZJNZvlgzqdsWRIwntlNiKQq200Uey4oYxOBgIuPIs8rO52o4nNyTwfEypgF+AzvslptHEs/UNzRdIaU5WOyGGsjyI2PluHhcBvLUI4IoiAvdklXFbNZx1DAIDplHgrsNc36+LjhjRT8WXeUkZeXdpclv7mi7M57Gry9OieYiKEtksF0Lkx0rMemyOmbqVSYg0Lm74CVJg3GpQdSOo27osAHFL+2mc+LgHsdCVbB4RDLubOUyp9Evi2xWZf4WsFFAiIM42DmvEl50M7wcFItbi18KvEBf+BDuUeb7SzoaFkunGoYyAbcsLtPHBJQAMOOAn0jtYDRsbgUvIk/7vGr3UbAqtonGcCiGXNzbIhkdGBmWrCAMVsOygxzhHnWGCgZC0yfs8BH7nMVyv3eeB3ZXkTPQQiBiZBRyxwkk8MPnZFyAJvQdP1t7Ck3QCIn36J5NRFOJspoKwEIAF9V2rPsiSmJQFbJJAAkAGm6NXyfEQt6RrjMGTJeMyDgbJM6ny1Bu2ScAOQbMl2YipJo+TBAOHAjLDj28BuN1HcA4SzzDUnExro2HUfY3zHBawCAGN04dQ7pCiOUZ0bM+RGhChp/uNhVweyCblVLVc8r8UwW1dYecmaTOTlcIKLmOxGUn5hrp7nWgYss2v2mvlKx0HIvk4rLhaxIGg6AxbNixA3awDknCiq5YQQWU9xx5Sh4OSWszqdRwHSQ7iUIazthxJ+z+8OtQl7qVEnUwsmqcYaXOtL9NW5GoCEEfcMdtbvYQK6jKcky4KsQF1YQmZIgktwvgWIXEHod8+lPOtwPsI1ZwReVYyGAXKwZMYaaTWg0GKfkDGirTmD4oUMvMaC8HuSgnew4FhdrcwRQlFQgo8ySDI2O2Y/qgQMUKsVY0d0oUqaOCQonvcSwSDAFWQdJ3BcaMp7NHeOCtFXXKQqCsylmu+JjaThE+nRCxwLIJ6vAFYMy5QF2L94j0nCBV6jK8TglgtyMhPdKow/xQCWNSkskfyj4m6bYaZ6IVqCizMJ4RH+g0zoSICkjMPwJxqOAJyXq5YqrUYbRHbehwmcanOkWqoFqCna1mQQT5X6jHoUWdokbAUVc9D5CSEwmRgMcYdVUIzPVljIn8CrEVLX2uqM1x1FX1DYZrYs0Cx8aJhrEAP/wtRhx46/DfWvv7qnamk6aHs5uNmSu+1JtES36eVOURBH2uFX1Aqz1PFsJkfKi2DVIoptDlVjTGdsH5SZzHBi1Iio5o7VGmeysikDrVRY0xblE/SccSrTCYovh55QIm54AW1DmTkO6T7Ecd6lExHIWrXOgh+q1LQTbyIAWyILFdx5CGlZDrFupyJs2lFYQxBtOFGUUmPuK1tgA4F0SUks7CgxBcrpLUlCqMCcV9yHJy/FGmgLKTFac65Q1pnWS4VJ8kTl2adZ/eMuQryv6TN1Zwkp8JCdJiTM+GCy9rP03ynMbpPkx5E8yupNpEc6KTouwitHjXQeNwKOw45UboPcXneEDX+M7A8uXUOZ5jAZkyLchwxms8ZcmmYfuT5yYaW9doX/GTl1Dn2AFYWkeJ6hz8r1BmS1njZe04Cc+hf6dBHT3bxHFzKb5LApFdtFPSCt4Rjfek2YmsHSfZc1opI1Xwg7gD8ChJKbeCiYl2SlqBN6LxHpLMkAk0VfImG+MeWvFEesCC24ZfiaOJu5fgofKxMAED3khTjtn6qUFxESANNGPBTmLy7Jg7CU48xE7EMmg8AkHmqH4fNzTy5s4xOrxIVx77HzHQgQw/SLdTAGQzHVKqVNNyMrZrhG4Cj+nuweDk0cIY2BBIMax5AokAGTVQr3jyVS0mRepweeqeGaaTh9JIpA6nrp6pDvhHyGaJqjEmbpOmAqxM/fMOTuxok0gdGmGgyWPFjEQc8caYYop6Cba4c6iz9TiCgZ6ZhMofwrpDAYrFwjLrrNLDMyEUdQJ+IFuPoRlvcAAOrU2oYSA4eDh1kNOXXRz0jB8BxYA7ckr2ESdMajE5BwUJBYVVpMD5MA6OLBph2aVaK4JOULQqMJsha6pRNhgdHcX0DqJSy5z1gAITKv2sC9m44J9S9BPAJck8jI1xcLMzbJi2FIXqXLY9GZ+6vJLRV7xcVTw87iukEUEahknGfJFREdmWMJihExObOkmwSERPMGf0vp3h2qBcNawGRU/Sh9zPFkJpInQ6veYpBdlAhy1mRbsCvpdRdwhZy7ROAs3KsqjI3PE4HqS8ybGfGVh5hIIya6JvnGqG4OyaH0enxrTP1gEegkUzRaFQO2SuDLAJFWDnH9M6j+pAP18egTI38DyWCgldXiuuuhBHBqyJsauUyUONaFhSKAJmuE+AMRcljEpgWTulsuQtA9ZECzll5WGkeJ+KRzhCNVwFtJTTnZquE4YC5I9iGjE6/xOpTASps1/ZHEc4y3HioRjFAteKt3cIrKmo0HGBS4UiBkL0TzoIrYz4Tm6cldDdeNn1VAisqbpUYK++UJNQgKO8ZxEIj8tEDjxc6lh4XfUSho4gNRU1FB7slSw9DDfuW52EurGFsEQ3+A24LyImcGSBPA/JHarWBT218xGv7Y0iZ+8qalVaFrriIKV4k4b6HRNwFwwcCFAd8SotlVgWkzDQGNz/zG8V0/Y2cNCJlpWXB9elqAtvqGbmMMapCOXH0YiSH5fTAq3POcaEa7jbSdwXCSqZN0AQWxP2KZU3FMpMqC24IyXo+3zFUftq7CwcXnyDNlhQn7aID/fcSI1rNgUNovxtf0VbqK3oMWUwoL/mMLonKD0UKcvCab0znS8hXouIZ+QAwBmE+JK6mnIZeYXau+2UbcawhjU547B58ZFxZ12EB7maaPMqT2PUuQLPhfC2j9FlFSuSf1ENiGNWv5+7zCIVUgMGgkeQOqAcLbDvk03B1TjBf66vUE0+H+6GNp1PXErcnfwE7qBq9brjT2lbpI3Fdvb+6eyr8iznc4i8qXT5nNRAA5UHToVa1hgrL5uKk43ONR5JuF3OGjt7SBKDl+dVzvAeQBlv9gTKH1WUAisNfL1Mt9drn3vUU/NiCqF+3sBrgPrL8GpO/kcQOVLBCXIFOqxi/9JTuOHIZNyaNjImz3uUNhgEcp4RVpeIgUC5gp1BNRHGFltnKWb7vWH1/bgqz4MQIZJSjr/l1kin44oaNsK6NU+mbOXWZpVD9O8UcJZBHRg5YGzm1WtlKyJ+qyeNdrDr67ZGNSwp5xdmK2eiQN00g7pAZ/JoweNC/GJYtPZqn573gl6ESVFjGtFceK5dLFuvaQIay0CgWJE/BUoBOCtzvJmBGbeNMHekZtvhRThY/9LAKsOklCF4x767il1rFtQ+Fpv7/5CLYP2nxAHh1+f88WYmSvyqZGw6IEIX9xlNLiiAjTpu1+3Yd9zPl81k+P4+Wb10rbCEklekZjZEOdOcdvF+iPQwOq0DUIhfy0tvHML7EnCf0cDohOpCMZPeOg7v4SvZ5Fo9y2NmGsZb0qKcKNrhz1Rr08fldBsjjt7DNsEu4UDo37+gsAVqVbkrkvByyfQANUwe6LwgrToZNhk32amVwNVW90wL/sVTcCS0XXKlQuh9rukBapw8mAL5TSr0HpeeQNoNc435oCG4svrU0TMPctJKnlBQid4SnHUFLAgJtLNlexwOhmk5Lb4WLo6vWNxwQ4qmfo1Uevo0MXdW2d05DrzPXqG3DN9lEEd7DJ0NkhYi0wVEiz+3bmMWtHDLFFbq0C/mjtS9V6tueSdDLGsnScp+1XHvJ1uxuNOAjXP2/aEgeDDkFK/kwOmCSP42k76BcEMYdaz1Y+42lYbj1/fVaHQ/ellNhrOPRNWqCqdy8+LT8BgqjYVInlVEkR/ysOzC4hl/1Zhl41jqnYALUXqXtC7BFaPtb27wHWcZRc+ElywWveluJ6IuJJbRY7cqPE5tC/2K276Sg8AuGZZ3KA68wxj/fmezZ6FhFY5BP/HmybBYFU5J+Mxw0qcuURkqiYpwrbfShdmoFfDKvx1zQpdLRd5dFfVKbbu5dEQKSpfcEtHX5k5OJbZgcMPTJrlDWQqcbGqvnXSdsmWXPSotQ8n6wF4YL1ZFL3FTqLfiGzWgLqPoXXB9Jd40f7TMuWyZAXmTCY2PyWg0ZGwWhjZwW3c2cqt+Ui26RTFooFbrQaAOiq83buus58Hp9Vmz0T+KQ+OyeKqmUwLzEfUYvXjsJq8stp1iXCQYlOInL4J90b+4uEgSBUgJsKeAXuUuvaMeppYKqPAq7KpfihSudVz2HXvFzVtgSB0a0es0kiielJkSQGVR0lcKLiQ/BePZcDW673ZHL++z2LYGUKcbWjmGZZs6YdgNXdoKnFPajilIzi3Iz9GKHjekDnMYM0nLCDNmglk3PFOfCkI4v+lwkAypEwt4y9AaqG8ux8Hxe6sTNVMZxGMojezmSQDOkDqxgHcM63la6FQVwjQ93N1JP9NM53qM6xtSBwcYyUpYtu/6b/27i3Xj6fysbrDSkojHTDhwIcwbKX/UqTdpSh1kFhDTwpwF0zGIE4U4E4OY/db0mo1npT4VdqIMqXP4If4G4kTPiSESo0k19Nxfr9cXyT0oM+os/jaOP6k93A+dxHJ7A0nZTJCRAjPqMGYUmZOZ4YS9cC2w2ZIpuV5bTk0KdbrV5sAzj5pQyjI1Reeq0X57u7hpdsTV3YlvIWRQp2tFwxEEsrexjPfoZ9B7Sqeqfx7w1Gl6QELx9V+irhDu9cpEz/o8DCdF/yTzrevfge9K7HnVTMzvwWln+nTT7j/8fX7rrxvNM+GuY6BO94QhUXcklK8UU/hxRF0jmlCXOjiJQiSzeirmT+KBUacZ8RPUnaZ3+lOIfDNi7mpGay1e3enkYv4g2ow6zUi7zas7najJD2LNqNPcJREvF1bxk38eka4gAlSTOlB34N0pnRn5cdywrmke7RW8O+Xc/J9Fg7GVJnVw2CErAeXX8cSoUy/eEgFqMmWlRv065kzg6d1XjMnHJPrxfQ7QXogsDZOL2nDPnAQzs4+U/xqmTBXrXWUmXj6VWevg9xCF/EgJDb30fTgLCpttiQKEh4EBZyRqHaKEsjPXh6zMSe/AfdGiTvB/VE8R/jR6nOupQ5zo/3xLNPMLcMqFDXTOnaNCEOqHHB44baWT5IeJOHcHEHfIQNg5SPfUKWYhKoSMukW/iztmR+kENMXbCA9UZIKDp1UzOoIjeAhfsuXzHWiZOXiQ7kA8hO/aRNgf0f47yRfUcBJQZJLt7cMM94WIjBWSF6JxRwEGVUggX5p3cRDocTJP3dDEiiOH7JiHCDjWUq8bANuu5CB1MtnucBDGa2F/SvkGBozUkqSZw4xDEzSYwlOOtaMuXx9wPIxgylaOstCEMyTBIcdUCHossqJaEw4PNw0OnjGJ3AOxorhBidWalofs2wFajLvUNB7m9pEUqm/dMd8fHY41ldwEPG9KPNfD3B9hCPsIebgqk1cdcu8d/f21biuCM6QLm9yV52PBHTJ1h7lxx6HDuddBHnUunuOtHL46IOBFX+LgTWzN0cMx639i1RVgqwQzToYZtnTJpunU039BYEboCeGD95TZs3yHnfu5PnTvgENbWEKvsqoWYYo/i1rCjuuBBthjICYV3cg5uRerkhz7njXhL2iGElJqVfp+H/3YVHys/Oj8gl1yq07xZSEeIodyBn8PNAKdAMS2+JMp49lwMpkMX5NnBfGswD+x6CKk30gUB01WPmS3LgbV0nvX7X+QODYl8ZMpAs5YlvK/w5YRaJbqPEVYdLiCEet/RaBQsLMbTwmu602Fkx3/hp4TwRPQwgODp/VBM5aam8m8h4uMFGqGt4Pd8MnDWS5t7X+Wth0qN5m0zQ87QpSPeto5z/78n9JwaejN4yWsju6eBv+mJJHidNBstB/+Hj2/rRvN2/rXK7f/AREaECqxGAxtAAAAAElFTkSuQmCC;" vertex="1" parent="1">
          <mxGeometry x="977.7900000000001" y="367.5" width="67.85" height="70" as="geometry" />
        </mxCell>
        <mxCell id="97Ax9wVYBVqeigITnSwv-4" value="" style="shape=image;verticalLabelPosition=bottom;labelBackgroundColor=default;verticalAlign=top;aspect=fixed;imageAspect=0;image=data:image/png,iVBORw0KGgoAAAANSUhEUgAAAPgAAADWCAYAAAD8d09NAAAMTmlDQ1BJQ0MgUHJvZmlsZQAASImVVwdYU8kWnltSIQQIhCIl9CaISAkgJYQWQHoRRCUkAUKJMSGo2NFFBdcuIljRVRDFtgKy2FBXXVkUu2tZLCisrIsFu/ImBNBlX/nefN/c+e8/Z/4558zcMgDQO/hSaS6qCUCeJF8WGxLAmpicwiJ1ASrQB0wwGujxBXIpJzo6AsAy1P69vLkBEGV71VGp9c/+/1q0hCK5AAAkGuJ0oVyQB/GPAODNAqksHwCiFPIWM/KlSrwOYh0ZdBDiaiXOVOFmJU5X4csDNvGxXIgfA0BW5/NlmQBo9EKeVSDIhDp0GC1wlgjFEoj9IfbNy5smhHgBxLbQBs5JV+qz07/RyfybZvqwJp+fOYxVsQwUcqBYLs3lz/o/0/G/S16uYmgOG1jVs2ShscqYYd4e50wLV2J1iN9J0iOjINYGAMXFwgF7JWZmKUITVPaorUDOhTmD6wzQ8fLcON4gHyvkB4ZDbARxhiQ3MmLQpihDHKy0gflDy8X5vHiI9SGuFsmD4gZtTsqmxQ7NeyNDxuUM8l182YAPSv0vipwEjkof084S8Qb1MafCrPgkiKkQBxaIEyMh1oA4Up4TFz5ok1qYxY0cspEpYpWxWEIsE0lCAlT6WFmGLDh20H5PnnwoduxklpgXOYiv5GfFh6pyhT0W8Af8h7FgvSIJJ2FIRySfGDEUi1AUGKSKHSeLJAlxKh7Xl+YHxKrG4vbS3OhBezxAlBui5M0hjpcXxA2NLciHm1OljxdL86PjVX7iFdn8sGiVP/gBEAG4IBCwgALWdDANZANxW09DD7xT9QQDPpCBTCACjoPM0IikgR4JvMaBQvAnRCIgHx4XMNArAgWQ/zyCVXLiYU51dQQZg31KlRzwBOI8EA5y4b1iQEky7EEieAwZ8T884sMqgDHkwqrs//f8EPuV4UAmYpBRDM3Iog9ZEoOIgcRQYjDRDjfEfXFvPAJe/WF1wdm451AcX+0JTwjthIeE64QOwu2p4iLZCC8ngA6oHzyYn/Rv84NbQ003PAD3gepQGWfihsARd4XzcHA/OLMbZLmDfiuzwhqh/bcIvlmhQTuKMwWl6FH8KbYjR2rYa7gNqyhz/W1+VL6mD+ebO9wzcn7uN9kXwjZ8pCW2FDuMncNOYRewZqwBsLATWCPWih1T4uEd93hgxw3NFjvgTw7UGblnvq6sMpNy51rnbudPqr580cx85cPInSadJRNnZuWzOPCLIWLxJAKn0SwXZxdXAJTfH9Xr7VXMwHcFYbZ+5Rb9DoDPif7+/p++cmEnADjoAV8JR79ytmz4aVED4PxRgUJWoOJw5YUA3xx0+PQZABNgAWxhPC7AHXgDfxAEwkAUiAfJYAr0PgvucxmYAeaAhaAYlIJVYD2oAFvBDlAN9oFDoAE0g1PgZ3ARXAbXwR24ezrBM9AL3oCPCIKQEBrCQAwQU8QKcUBcEDbiiwQhEUgskoykIZmIBFEgc5BFSCmyBqlAtiM1yEHkKHIKuYC0I7eRB0g38hL5gGKoOqqDGqPW6BiUjXLQcDQenYxmotPRQnQxugItR6vQvWg9egq9iF5HO9BnaB8GMDWMiZlhjhgb42JRWAqWgcmweVgJVoZVYXVYE1znq1gH1oO9x4k4A2fhjnAHh+IJuACfjs/Dl+MVeDVej5/Br+IP8F78C4FGMCI4ELwIPMJEQiZhBqGYUEbYRThCOAufpU7CGyKRyCTaED3gs5hMzCbOJi4nbibuJ54kthMfEftIJJIByYHkQ4oi8Un5pGLSRtJe0gnSFVIn6R1ZjWxKdiEHk1PIEnIRuYy8h3ycfIX8lPyRokmxonhRoihCyizKSspOShPlEqWT8pGqRbWh+lDjqdnUhdRyah31LPUu9ZWampq5mqdajJpYbYFaudoBtfNqD9Teq2ur26tz1VPVFeor1Hern1S/rf6KRqNZ0/xpKbR82gpaDe007T7tnQZDw0mDpyHUmK9RqVGvcUXjOZ1Ct6Jz6FPohfQy+mH6JXqPJkXTWpOrydecp1mpeVTzpmafFkNrrFaUVp7Wcq09Whe0urRJ2tbaQdpC7cXaO7RPaz9iYAwLBpchYCxi7GScZXTqEHVsdHg62TqlOvt02nR6dbV1XXUTdWfqVuoe0+1gYkxrJo+Zy1zJPMS8wfygZ6zH0RPpLdOr07ui91Z/lL6/vki/RH+//nX9DwYsgyCDHIPVBg0G9wxxQ3vDGMMZhlsMzxr2jNIZ5T1KMKpk1KFRvxmhRvZGsUazjXYYtRr1GZsYhxhLjTcanzbuMWGa+Jtkm6wzOW7Sbcow9TUVm64zPWH6B0uXxWHlsspZZ1i9ZkZmoWYKs+1mbWYfzW3ME8yLzPeb37OgWrAtMizWWbRY9FqaWk6wnGNZa/mbFcWKbZVltcHqnNVbaxvrJOsl1g3WXTb6NjybQptam7u2NFs/2+m2VbbX7Ih2bLscu812l+1Rezf7LPtK+0sOqIO7g9hhs0P7aMJoz9GS0VWjbzqqO3IcCxxrHR84MZ0inIqcGpyej7EckzJm9ZhzY744uznnOu90vjNWe2zY2KKxTWNfuti7CFwqXa6No40LHjd/XOO4F64OriLXLa633BhuE9yWuLW4fXb3cJe517l3e1h6pHls8rjJ1mFHs5ezz3sSPAM853s2e773cvfK9zrk9Ze3o3eO9x7vrvE240Xjd45/5GPuw/fZ7tPhy/JN893m2+Fn5sf3q/J76G/hL/Tf5f+UY8fJ5uzlPA9wDpAFHAl4y/XizuWeDMQCQwJLAtuCtIMSgiqC7gebB2cG1wb3hriFzA45GUoIDQ9dHXqTZ8wT8Gp4vWEeYXPDzoSrh8eFV4Q/jLCPkEU0TUAnhE1YO+FupFWkJLIhCkTxotZG3Yu2iZ4e/VMMMSY6pjLmSezY2Dmx5+IYcVPj9sS9iQ+IXxl/J8E2QZHQkkhPTE2sSXybFJi0Jqlj4piJcydeTDZMFic3ppBSElN2pfRNCpq0flJnqltqceqNyTaTZ06+MMVwSu6UY1PpU/lTD6cR0pLS9qR94kfxq/h96bz0Tem9Aq5gg+CZ0F+4Ttgt8hGtET3N8MlYk9GV6ZO5NrM7yy+rLKtHzBVXiF9kh2ZvzX6bE5WzO6c/Nyl3fx45Ly3vqERbkiM5M81k2sxp7VIHabG0Y7rX9PXTe2Xhsl1yRD5Z3pivA3/0WxW2iu8UDwp8CyoL3s1InHF4ptZMyczWWfazls16Whhc+MNsfLZgdsscszkL5zyYy5m7fR4yL31ey3yL+Yvndy4IWVC9kLowZ+GvRc5Fa4peL0pa1LTYePGCxY++C/mutlijWFZ8c4n3kq1L8aXipW3Lxi3buOxLibDkl1Ln0rLST8sFy3/5fuz35d/3r8hY0bbSfeWWVcRVklU3Vvutrl6jtaZwzaO1E9bWr2OtK1n3ev3U9RfKXMu2bqBuUGzoKI8ob9xouXHVxk8VWRXXKwMq928y2rRs09vNws1XtvhvqdtqvLV064dt4m23todsr6+yrirbQdxRsOPJzsSd535g/1Czy3BX6a7PuyW7O6pjq8/UeNTU7DHas7IWrVXUdu9N3Xt5X+C+xjrHuu37mftLD4ADigN/HEw7eONQ+KGWw+zDdT9a/bjpCONIST1SP6u+tyGroaMxubH9aNjRlibvpiM/Of20u9msufKY7rGVx6nHFx/vP1F4ou+k9GTPqcxTj1qmttw5PfH0tTMxZ9rOhp89/3Pwz6fPcc6dOO9zvvmC14Wjv7B/abjofrG+1a31yK9uvx5pc2+rv+RxqfGy5+Wm9vHtx6/4XTl1NfDqz9d41y5ej7zefiPhxq2bqTc7bglvdd3Ovf3it4LfPt5ZcJdwt+Se5r2y+0b3q363+31/h3vHsQeBD1ofxj2880jw6Nlj+eNPnYuf0J6UPTV9WtPl0tXcHdx9+Y9Jf3Q+kz772FP8p9afm57bPv/xL/+/Wnsn9na+kL3of7n8lcGr3a9dX7f0Rffdf5P35uPbkncG76rfs9+f+5D04enHGZ9In8o/231u+hL+5W5/Xn+/lC/jD/wKYEB5tMkA4OVuAGjJADDguZE6SXU+HCiI6kw7gMB/wqoz5EBxB6AO/tPH9MC/m5sAHNgJgDXUp6cCEE0DIN4ToOPGDdehs9zAuVNZiPBssG3q5/S8dPBviupM+o3fI1ugVHUFI9t/ASh5gzzxy4UNAAAAimVYSWZNTQAqAAAACAAEARoABQAAAAEAAAA+ARsABQAAAAEAAABGASgAAwAAAAEAAgAAh2kABAAAAAEAAABOAAAAAAAAAJAAAAABAAAAkAAAAAEAA5KGAAcAAAASAAAAeKACAAQAAAABAAAA+KADAAQAAAABAAAA1gAAAABBU0NJSQAAAFNjcmVlbnNob3TTGlX6AAAACXBIWXMAABYlAAAWJQFJUiTwAAAB1mlUWHRYTUw6Y29tLmFkb2JlLnhtcAAAAAAAPHg6eG1wbWV0YSB4bWxuczp4PSJhZG9iZTpuczptZXRhLyIgeDp4bXB0az0iWE1QIENvcmUgNi4wLjAiPgogICA8cmRmOlJERiB4bWxuczpyZGY9Imh0dHA6Ly93d3cudzMub3JnLzE5OTkvMDIvMjItcmRmLXN5bnRheC1ucyMiPgogICAgICA8cmRmOkRlc2NyaXB0aW9uIHJkZjphYm91dD0iIgogICAgICAgICAgICB4bWxuczpleGlmPSJodHRwOi8vbnMuYWRvYmUuY29tL2V4aWYvMS4wLyI+CiAgICAgICAgIDxleGlmOlBpeGVsWURpbWVuc2lvbj4yMTQ8L2V4aWY6UGl4ZWxZRGltZW5zaW9uPgogICAgICAgICA8ZXhpZjpQaXhlbFhEaW1lbnNpb24+MjQ4PC9leGlmOlBpeGVsWERpbWVuc2lvbj4KICAgICAgICAgPGV4aWY6VXNlckNvbW1lbnQ+U2NyZWVuc2hvdDwvZXhpZjpVc2VyQ29tbWVudD4KICAgICAgPC9yZGY6RGVzY3JpcHRpb24+CiAgIDwvcmRmOlJERj4KPC94OnhtcG1ldGE+CodIBicAAAAcaURPVAAAAAIAAAAAAAAAawAAACgAAABrAAAAawAAIwPqFov/AAAiz0lEQVR4AeydebBcRfXHOwkgBBVlCUkkkgcoLuBSv5BIFES2QCAESQJxBUlpXKqwCsVfBPQPq7BAFo2gSLFYClqISYAEkvwo3ABZRSKJIQlEwhJCzE5UEPIev/6c976Tfvfdmblz5868IdP96r57p28vp0+fb5/TfXsZ8Lp3LrrIgciBHZIDAyLAd8h6jYWKHDAORIC3oCCYSeUNqwEDBrQgdc0nSUZm5EftvI8Ar51nTYkhoea+detW99xzz7l169a5rq4ut/POO7thw4e7YUOHut13393oqUf4yYN0Bw0a5LZ1drrnnn3WrV692r388stu4MCB7u1vf7s74IAD3Nve9jansAN92LzND2l0+vyIv379esuLOzRQno6ODrfPPvtYOckffxxlrKeclkib/YsAb9EKNxB4sG3ZvMX95S9/cffed6978skn3WuvveYGDx7sPvjBD7ojjzzSvec973Fvfetb6xJ8ALRt2zYD0j/+8Q939913u0ceecS99NJLBvD999/fHX/88W7UqFFur732cp2eLhqZvGCjbP/973/dmjVr3MMPP+wefPBB99RTT1njQfpHHHGEGzNmjDUqgz3gu7Z1enQ7oyVvni1azQ0nKwK84SyuLQOEX+4///mP+8Mf/uB+8pOfuCeeeMK98sorBnDe77nnnm78+PHu9NNPdx/5yEdM+yperXfyfPXVV90zzzzjrrzySve73/3OwKd0ADMNyuc//3k3efJk96Y3vcnApve13mlQ/vWvf7lrr73WzZ071xouGphdd93VGhoshokTJ1p+Bx98sOvq7HJdr3dZnlgZ0WXnQAR4dl41PCRA40JLoeHQajNmzHCrVq0y4QZovOcu7XrKKae46dOnu5EjR9ZF34YNG9zFF1/sFi5caOB785vf7HbbbTfLF1N9y5YtplXPPvtsd9RRR7lddtkltwb/97//7X7/+9+7yy+/3LoemOVYJTjK/uKLL7ohQ4a4KVOmuHPPPdcr7wHutc5tKHFryDDbo8vGgQjwbHxqSijMb4SXa+PGje6ee+5x3/jGN6xfitaUUzjCHHbYYW76l7/sjjv2WL2u+f6Kb0xWLF9uedGYoCUB3E477WSAI7/NmzdbvxjNOuN/Z1geAwbm6xPTmADuu+66yxoyGhIcjRdlp3HjmS7BhRde6EaMGGHdB/ygDbqiy8aBCPBsfGpKKMxkBBghR4vNnz/fffe737V+LxoTJwDwG6Bgwp555plu6tSpuWnEXP7b3/7mzjvvPEuTtEMNDbAIg9+xviG57LLLDPho2zx9YsqGZl66dKnFJ12NAaj8aPmDDjrIfec733GHHnpodz4+v0GeN4SJLhsHIsCz8akpoRBynAA+b948d9H3v+/28INo6vci3NLgaNUDDzzQfepTn7L+al4iGaV/7LHH3AUXXGCj2nQBAF3oABya8+ijjzaAS7uHYbI+v/DCC+4rX/mKY0CP8lA2Bu64+E2jQReEkXsauA996EOWN3yJ4M7K5e5wEeC18auhoQG4zNS1a9e6CPBugDPAR6MDuAF5dNk5EAGenVcNDxkBnq7BI8Dzi14EeH7eFR4zAjwCvGihigAvmqN1pBcBHgFeh/ikRo0AT2VL/3hGgEeAFy15EeBFc7SO9CLAI8DrEJ/UqBHgqWzpH88I8AjwoiUvArxojtaRXgR4BHgd4pMaNQI8lS394xkBHgFetORFgBfN0TrSiwCPAK9DfFKjRoCnsqV/PAXwQQMHuRfXvmgz2b7vp6qy3pvpnEzhZIpoI6aqLlq0yJ1//vktOVU1TnTJL48R4Pl5V3hM5mI7vxycVVosyGCqahLgTNekIWDKZlFz0VlIEs5FpxFppbnoEeD5RS0CPD/vCo8ZApzdTtgMgTXaaHAAhwYH4ISLAC+c/TtkghHgLVSt7HTyepff8MFrcAB+++23ux/84AclgGshiu5FanCWi37729+25aJocBZ3hK4/V5NFDR7WRG3PEeC18auhoQEuIEdTs6QSgF966aVujz32MMDxTqupitbgAJw+OGvMsRIiwBta1U1LPAK8aayunhEA58KFAMdEB3DS3LwvGuCPP/54SYNHgMPhHcNFgLdYPaKlcQI4u6ewPxp9cACOdteFic6uJ/Vu+MAgGwDXhg8AHDM9dM0w0WWhUL5ww4doooc1UdtzBHht/Gp46FYGOMD/xCc+4a644gprAABiHpfc0YXGi3JHgOfhZuU4EeCV+VPoWwkx2pFPXfymz8vWRRxswMAaWyWzPTLbKPGpbLnfDFH9bogRqLizhxubI7Jv+Xvf+17T8DLxsxIOaPmuTl6LFy8uHXYQ5klahCHPYcOG2UaPPBM3j2OX1vvvv9/KSD6kI96QLhcbL2K5jB492u6EISzl3Xfffc1y6ejoKM0RgKfEw/GVgedkGfLQ+kaPEwHexBpE8AD2Ln7SClsiP/bXv9qhBoAYMxlgI+gSVMAqYPEsEx2SCUNYHIKMgIfv7UWGf6RDPNGmNESDktBv7gITYfM45afPfaJBZee3Jv1o62aBlTvjEfi/733vcx/+8Idt91W6KjjihunkoW9HihMB3oTaROAQau5or7///e+2Lzgnljz99NPW3+Q9wEFTcedCmCXYkEkYBDh0+AEGNJ7e6R6Gq/asfAlH/GQavMeRV7IxsBc1/CNtQKo0FZWyhE75hLTAQxo9xgQ4/GHkyJHu8MMPd8ccc4xtzki6Ic/C9NrxOQK8CbWOoHIhlBw/dM0119hxPfx+y1veYiaoNLXAJaFGoLlwaQDPQ77SJq7yI23y4Z6Wj8IBSkBEg5JsgLLSQj7EpxFTfsm4SjukVWGIQ0MD/7B8OAmF446++MUvmlbXpCCFb+d7BHiTah+hZr43xxAxBZWD/DjRA2FEmBF4AYvf0m7EE/AqkZoGhLTwAirvwjg8kz8uLU9oIoyARziF5zmrIw4XDZ7yVPmUvtJSnvjjdCc88cUnRtxpID/2sY/Z1F766IqrtNr1HgHepJrnxJA5c+a4q6++2jQX53ABYgmrhF59cX6jKbM6CX/W8GE4xSXPNBf6EzZsfNLCV/MjPS7S4i6AJ0HJe/wAL3kywAZPiMOz0iE+DSTdHw6B4Aw19ouPzjeKnknptRq5UygHbr31Vnf99ddb/5ujcaWBYD/mJpqcEzwwNwE/wo1/Vkf4vE5xQ1GQH2nir3f4C+BMq+WvJueDK47v6Vu6nV2ddk8DOGkDavjFICRfGujmYJ5DR2gBockZbOO4J7Q5o/Dt7iLAmyABCOV1113nbrnlFhNUtI8Gq3ju8J976ENyFDAA19LQrAAPwZinOAANJ+DxLL/QH5CTV6/8ase35aQ8yNM0eM8cfEAup0aFvjoAR0tvWL/BLVu+zP3pT3+yAUrC62QUNDja/nOf+5ybNGmSHeuktNr13vYARz7z675sYsMRwD//+c/dn//8Z5tXjuAirAgtoD7ttNPsok+Ok2D3AlKVrGoJWyWp1Ne9aJK14MtRhAsBPmAAAN/+tYB8eR9q900bN7mF/7fQ3XzzzTbjj7JLy69bt86OU+YUVM5Ra3fX1gCX0CIEjQTIDTfc4G688Ua3cuVKmyhCXuvXr7dJGmgazunCnJSQmsB7wQ61WSVBJb1Q41YKm3xn5e5p4TC5caEfv+GTLt6VTPQ8APdZiO+smusCwL6hw2+A18YDewDuifDP3daCvQue+Q1vLrnkEnfnnXc6QI0lRNcGvr7zne90X/rSl0yL02D4qCWXh2QiK40S7fIopdyaDxHgVnnbJYAKDAWqiGq76qqrbIANU52VYWhuZqrR5z7jjKluwoSTTaOjwRHcPEJkoMxBrPKqFjVruGrplKOzXPrJ8PCOrgtmOeD+xS9+4Z544onSXH34OnToUPeFL3zBnX766W7wboNt+S3pkIcasWp0Jt8PHOTrxTeAjBfgaIzfCK6tAR5WEFqTC4cWyXv2dZimnq+88krHIBvTQVkZJoAfeeSRBvCjPv5x6/+GZqjiZr0ngZA1XjlgJeNnDZeMl/ydSifasEe1JvNJhtd7/B966CH7KvHoo48a4OAfAN97773dWWed5Xl7htt98O5mkfCu6/XtdZykq9pv8iNvLtLCiknSVi2N/njf9gA3ozQhXFZxvkK36/X6qqYcwE844QQ713vM6DHWoIS01JpjXmETYKrllzVctXRS6awB4IoPPcwInDlzpo1tMJrOBcCZY4AGZ5UdpjtxuIiTtxyKT/mUnp6rlbk/30eA+0rv9Jp7J98io1kZieXKOoKdpfJuuukmt2DBAtPgzFzDUtiyZYsbP368+8xnPmNzqfFL0+BZBRKhy+Oypp81XDUaUumsAvAwDnRwwStM88svv9zde++9ZrLTxQHgjGecdNJJbty4cTZnvbtvXx/AGcnH+qKLFQ6GhrRVK3t/vG97gAMsPq0A6NWrV7tnn33WBm345lqUYwYbO6YwAIRwkOfGjRsdGvyzn/2sGzNmjNGABkoKjICle6/3DFj5P1wv/6yEB8CqFkX5VwtX7X0fOlNoIAz5cfEcxoF3XJjIS5YscT/84Q9NgzPAhrZmNR79cwbaRowYUZpTQIOgNKvRmPaeNN/xjnfYqr13v/vd1g0I6UqL0wp+bQ9wKgGNDQCZZcYCECZMaKS4iEqi1Rd4EQoEFA3OZxw0+NixY/1IstfgfiAnTWgk1LyDLgk+cehX8htnI8YZCWaMIenS8lYY5aHf9d4BnJyAR/6VaCA8JX3d848BrxVPrjAT/YEHHrDZgUqPO3VaZCMNXVh473rXu9zkyZPdtLOnuUE7tX4/vO0BjiAsW7bMXXTRRTZDCk2OOVaEk7CGAzLyywpwgdtLvn02kiZC2HgmPQBCuFpGDfob4KKbu55LPMev9KP3Q1aAq9HoHTv/L/GYNfisvz/nnHNsBRuWQyu7tgf4qmeecXNmz7bPLfr8AiABTL0OwZULn/HLAnCECiADbo9i+2aM9qIBkpXBM+FqHTNI0gNNaX74y5FPUY68oJlGSgNkSt8aLhqvlMyyAjwlal1e0ITDKoDej370o+573/ueDejVlXCDI7c9wDHJ2Zr4r37zBUxpKtK0YQDOouogBFAmgPuMmQRCPA0Arlu33mh9/vnnjFbo5Z3AkZXWkBbFSfPTu1rTV7xKd2bzQT+DYuwUw+YNzNOnv2uA8uVOgjwrwCmLyqN7JVqyvKPhh2ZADr3MpIPeVnZtD/D77rvPXXjhhbZtEssMEWQ0C5VZr0sTLPllATj5Qw9xMA2ff/55d88997hrr73WBunwpzHKS69oCcuZ5ic6wnBFPAMW8mN3FgbFmLJ74oknGmjE/2R3CX5wUe4VK550P/7xTNv+KTnxhAZCZdG9HpppRKGJLh0LXYYPH+5me8tvyJAh9STb8LhtD3A0NzuXMl+cykJQBKpGcF/ClhXgsiYAMTSyT/rDDz9s/UA0nb4AJAU8K+2iJ2v4osKRL3wGODRelIP+7I9+9CM36n9GmRnMrDE+K4ZO4IYvrCrjO3g4yBaWh7C40C9Mq5Zn0oJGtDeNzvvf/37buGOvvfaqJZmmh217gDN9dP78+dafwlTkQiAQvKKcBI30JGxZAS4a2CKZgxDY0RQNQneCtNBUXAhfXiea8savNR75cYkv3CkTdUEDdvzx47wJPNQ0pjS58iAs4K4EcKUfanHFz3snTdbq850d7c1c9ylTppS+iedNt9Hx2h7gaI9VfjMGNAdTHxm8khAVxXy+zzIwg8DhEJZyAE/mSVgam02bNtlZZcyKw5GezEY0CuZuHicw5IlbTxwACp/hiUxfNp8E4BMnTjQQkX6aiV4O4JSFNHF8D8ecLsqRLukzgs4EmmnTpvXqShSVT9HptD3AYShmF6drLpi/wC1fsdzAV6QGp9GgIUFABHIAftxxx7lPf/rT3d/BvcCX0zivefN8swf4HXfc4Vi4ggPgmO0IHhfaJa+DrmY68lODB4C5qAN2muVz5Sc/+Uk/qWQ/+3LAt+bQUdYkwNmCmS4K6fIex7p6pqwW5ciTRSwMBDJv4ZBDDikq6YamEwEesHfJ4iW2icCmzZsMPMGruh6ZSrl06VIzQ/XdtA/A/aSVpDCTKQLbua3TbfYNwh13zPODSj82AScdzHIuwMIsK20xLEGXsNdFfAMi09jRf4ZOARy/Z/wnSz49ocH38wAHqkz+6eV6AM704idXrDB+AHDSwRKAH4CdhTxj/aesnb0/jrzqdZjmaPBWHzkPyxkBHnKjQc9stDhr1iybCkvfGVfORA8FEWXEZzIcVsDtc2+3rgTahAE2NDh915EjR7pvfetb9ukm1GSEq+b6oxFgVd03v/lN61bQOEEzXQwOgOCT5YQJE9ywocNsGq4sHpUDestpcAAOP9Dc7Ms2depUmz9OeBqAkLdKb0e/R4A3oYYbAXCAQTcCgeYAADQ7GiY5KNWE4tWcBae4sNEFfeQiAM5OOTQSpKXVZBHg3dUSAV6zeNYeodEA59giFl0w+cI0OJNW/VzzrBqr2VocgDOfu2iAY9Vg6UQNvl1GI8C386JhT40GOPu68fkMDY4pyoYVNmCX7L+mlZB+QJMdAGdSCwNrNEgy0TnlJY+JjgZHe3NFgPeuzAjw3vxoyK9GAxwNDsAZaBvo+6HsZRaOyGfV5I0ofJp1AMAZKRfAASZ98Ajw4msgArx4nvZJsRkAx0RnuieAYoMD64v3aOdWAHgIdNbchxpcAGc+QtTgfcSnLo8I8LrYly1yBHj35z5xC4BLgwNumeh8JosAF5eKuUeAF8PHiqk0E+AQgsbGVPfq3OhqRQ0eAV5RZAp7GQFeGCvLJ9QMgNMHZxIG7o0KcEx0pqqefPLJ9kWA9mlQYqAQUz/5HTwOspWXvQjw8rwp7E2jAa5RdCa84JIAN8/uF33WV5feNegh7HvrmUG2U0891QbWwlH0sA/OtFBc8rs+oGfTC1aaaTWZpqpi7pf7Dk46/WnJNIi9VZONAK/KovoDNAPg7C7a0dFhxBrAexa2JKnvLyEXuKGnXB+cmWyhBicsn/1Cl6bBkwBntmA40YX928rtdxemvSM+R4A3oVYLAfhWP1XVLxdl1RsmKtpKM9nQ4KxpP+CAA3xpmODi53C/QQFug2wnT3BD/XJRGqMI8PoENAK8Pv5lip0X4CQOmHE2F90DnM9hlQCunVXTNlUknVbX4BHg1FJxLgK8OF6WTSkEOMsYcVpswukbrHqiX5mmdWsFePfhfR7IKdsik++OCnB9bqMPHk10arrbRYB7PtCvw9wFYAJZ2GcUs/Lef/azn9n+XeyppjXK7NDCvuhaD14uP/lLg6eZ6AcffHDJRBeAVY6qNHsz2Fv0DXOinwz0nJyqCjiZ1ZbWB08OjpEGjR5XOMhGGpjzrIsH4Gf5s8loPDlogoG5gTR49F34kdOJtzmj90u0CHDPdoRGAOeZZZjSnEXUyvXXX+9uu+022zSR429w0uACOPmlgVKgCAGOHwKt5aIAnMGpAw88sERu2FjJU2npt+6NFFzlqTt5AvBqq8nCUfSQPtJJA7hG41nAwg46HDzIbDkATt3ynrghHSp/tTtxoIF0WYfPTEG/h3VZK6laes18HwHuuS2hAXQcKYSZV88eZ8kKZCeWP/7xj+6f//yn7fnGewFcJ5sghEltRTgJJACfO3eu9cHxiwDfrsHZGRcAs5qMjSN4Puyww9zo0aON38xzB5iqZ/haq6PBZLUe8/3ZaHE3fyxx8ht9rWk2I3zbAxyDjU0VADValt1XMKWL1OCs2U42GEmAcwxRpSWeoQaHtgjw7QCnzmgc0dZYNTj2ZMNc57c0OFpYDaYFquEfjQZWxRFHHGHTbA8//PAaYvdf0LYHOJXPDiPsdca2xGxuSGuNwBTlEI5kekmAl9PgoiECvJsT0sI0cuqDs1c8/GVHXABNmPAC2PC3nnolPRoM0ho1apQ7//zzHYcQUret7Noe4JjNAJuJIoCOCiui0iRgVL6t0faNBn5yDLJp00WOwYkA771lUy19cAGcPelwIZ/5DShpELhzpbly/gpLfBoPLAMG8ejff+1rX7MtoRSmFe9tD3AOkWeUm0kkfMJCSBAQKrQelxSyZFoR4JW3bKoF4DLR6YMD1HK8D/3TAJ3mR70RjwsLgP48jTGnjF533XV2jHCyblvpd9sD/MEHH7SdPAE6u2WivdVvq7ei0gRGfhHgxQGcQTZMdOoOEIZADusw9Fc9hO/T/HgvgHMH3Fx77723++1vf9vyO6y2PcA5Boi9uBctWmSVhpCoEsPKz/OcJjDyywtwZrIhaHGQbXsfvNEAp+6x6Ohq0fhzMZr+y1/+MmrwPMBoZpyVK1e6X/3qV2Zu8Y2akVi0ACCv14Uag7TC3wBcE11q7YNHgPee6CITnUavERqcugPg8J0vIsjI+PHj3XnnnWf9cd63qmt7Dc6gyZIlS9yMGTNsJhV9cK5aAS7NTEXzHP5GOPiN8Ol9BHhxJnoIcLQsdaduloAJ75P1YpWR8R/gZhCWRoRPZOeee64dQMjvVnZtD3DGtV/yFccgG4cQMl2Sb+K1AlyVLCEKAY7Q0UfkLjMv+ZmM7+CVljSGE10Q2mii9zXRBTZ4D7+5cKoLWVD6zTv58VzJkTYWHoNrnJrCFxCb1ebzamUXAe5bZlp7TC92Bnn00UftBJI8AEdYEB6uUHD4zr527Vqb7IJ1wGwrAJv2mcxHTpWXrT0z2di5JQK8t4lOH5yGk/GTV/3RRbv60XSW0B500EHWEAJ06jOsk5DJ5fzDMICZTS1Jl2W51GPYUIRhW+m57QFOxTPLjMoyAfHgY+FDXoCrckOhYTBm3rx51nBw3jUAZdIEAK82VVXpRQ3ezQn4Cv+4NNFFJ5tQf/ApXGzC5BdZTZjp6iaJr1nv5EfeLM2pNOMwa3rNCtf2AIfRVJxVHtqTy//O60gHZ2n6BQk4vrPPmj3Lzr/mUxzgxmIIAZ7VRI8avC/AtaMLQN6wYYONbJ/Vs5pMq/esIlL+qb5SXvXywuqSyQ/YyStvY9Er4Qb/iADvYXAJ4AUw3GAdNBKsB58zZ44BHIFjxVMEeHGDbAI4/WQGL5mwdOaZZ9pyUfrNWGPqOuU1q0P50HPetAoQscxJRIBnZlX+gMxzv/XWWw3gCByzoZImetTg+aeqAnDALYDTiIYAZ4wFMGokPU9NvhHAnFauCPA0rhTsB8ClwQE4fX5G6rOY6OosMMjGSD8TXdBICDN3LIG4Hrwb4ExVZbFQBPh2AY4A386Lhj1hos+ePdu98MILNgAEwNHgTHTRIFs5Da4+IoNHlQDOpovtvOEDDV4EeF8RjgDvy5PCfZIAx2REgzcM4JijPSZpWBg1FqEfz400P5Wn7uTXiB1dIsDhbF8XAd6XJ4X7lAO4voOPHTu2exSf2VaJ3AWMSho83DYZsJb7lKO0EllEgCcZkvK7kY1gSnaFeUWAF8bK8gn99Kc/NRN99erVZqLTd5YG155sgI+9vuoFeLiralIoI8C7p6uWr6nyb5K8LB+ytd5EgDehPgRw7apaC8D55ooLJ7okB9lCDR4BHgfZQpGOAA+50aDnq6++2s2aNcv2emOENy/ANcgG6MNR9AjwOIpeTnQjwMtxpkD/JMABKBpZy0Ur9cFDDZ4F4K3UBw8n/ITdg2f9tsmTJxU70SUOsqULbAR4Ol8K9c0LcCbDseMr7qUKZ5Pp4IPSZ7KeUfRkvzEEWVjAZLjwXb3PytPuPR/17eCDSafZnH+AyRxyJv+wkk9HF7FFsZ9AbFNCQ/pIh0aPS3PRNdElfibrW1sR4H15UrhPIQDnO/jc9MMH+wDclyBt1pbAlixgCKDku3p/K88Q4GjwSVUAzuGDOOZ8h/RFgNdWIxHgtfErV+iiAY6Qh33wcjPZQmBAuMCWLEQyXPJ9Pb+Vp917NHgEeD0crS1uBHht/MoVOglwBtnog4ffwTE5k1oXPJRM9J6ZbJxNhgPgWsceAX6/zWKDJ3GqqolH6V8EeA8r0DCsA2cLJ/qDGtwqcaqOh1//+tdu4cKFttiE9cmkzY4uArj2ZOtjjvo8OXUUF050gVZpcOgdOXKk7Q82YsQIC8u/ZGOBn7Qpz6FrtgZf4zfA+PrXz7GNLygHfXAdPmh98AkT7JggaGSJZkgfZYB/XMk+OGnBJ9bcT5w40Z100kmls8nKTf4J+VDtmU0eSFv79lUL3wrvI8B9LSA0rPddtmyZe+ihh9zy5cttEUdRFcSOLpx5psYDgU4DOP4SZrNmPV36jeByNhkHNEArwozTZhV77rlniVzF0Z0XPPcHwJV3iTj/gOXBum1oolELAc4hiqeccoobPnx4iV4aK7lyAA95R1h2YOEKXbnyh2EqPR966KHuxBNPtC2bOIjwjeDaHuBUOmADPJxNBhgBEFdRTtpUgopgVzPRQ4BDI+ucWZEGwNFqCK+2Ikqjlzi6wnLgF7qwEQj9i3xWuZUmedJAcecdF2vkGUVnQwsAzrbEoj+Mj19Sgz/wwAN9BuPgCY1f6JRe6Jf1GRqID13jxo1z06dPtz3aQtqyptXMcG0P8K0vbXWPLXrMXXLJJW7VqlUmbGgV+slFOZmZoTCkAxxztDvXEOD4AHDWlGtHF8xFtBYOQQ4bJIBTDrgIaejKhQvD1Psc0qP8BRiljXUDwGnABHDeiXcKR/w0gIsXKg9WgupQfsRV/kov6x066EaQLnuyTZs2zehsdU3e9gB/+umn3c2/+Y27wZ/hDWi4ED4JR1YBqBQuTbAAeKXVZEmAA4A777zTsSwU85Z+IN99oRWBR/BwEmbdQ79ywh2GtUQK/peWPn7wGNq5A57169dbQ3vCCSe4fffd16joMy6REeAqAvko/7R6ULhqd/gMj1nmC9gZN6E7we4xrezaHuCPPPKICRUnm3DuM5ogbP2LqLw0YNUKcLQ0EzquueYaGyfAxOUSwNMapLR8k34S/iLKWS4NaEw6aJcmhnbo4DggTu3kbG82xoBW4oY04qd4GmTDRA81OGHCOMoff648TvHoSmAtMaB5yy23xKOL8jCzmXHYkfOCCy6wgTUGdiR4RdKAQEpAlG4awG23TgS6JxBxJKgAnPEBQM7iFe3dThhdSlt3xdXvJA3yT4aTf5F35RHSip8APGTIEHfGGWf4CTCT+pwWorjQQ/xKAA9pVl5hfL1P89O7tLvSwpIC4OyPzok4bKLZyq7tNfjjjz9uZ4PfddddttUPAJcQ1VNx1QQoC8DD/NFyCBYm4po1a9xK31992QsbLsxLghjeCcPv8G4//L8wrvyKvifz4DfAZrspNC+W03777WegEf8Jgymctw8urU1ZlH+SB/qdpbzQSXgaVroNmOicaRdN9Czc68cwHEhw9913u4svvtj6gQgYF4JVtEPQJFS1Apx4XF3+sr6gFzQ0GcDnvlPPgFuo/UW/8tTvZt8FsF75el5glbDzDGMJDFYx/kFfHN5Ls4dAJb7xwJeXMqeZ6Aqje1h2PSfvhK3miAO93NHeX/3qV90xxxzT51NctXSa/b7tNTiTWhg956xnzHUGeqjEVKHMWTsIMBpAjQbp99nwwe+hjonuMy6Z6OWyIz4XQi5alXYpjlfYPpS9L/n100MaLwGuygFZhOGiPtCQfcrTQ7vKTcP21FNPuZkzZ7qwD64iJtPGH7+8Drr4NNnR0eGOPvpoN2XKFLM8ytGZN5+i47U9wKl0Km/p0qVuwYIFbvHixTbdEfAU5UgfzUSaCATCCcA1k03LRS2/DAA32rysdnZ1D04BiKTwdgt4N8hL5Sgn4D7PRrrtTVY3wPjNOWy4LjscortBBeBYJ6a9g7GIkDbKRflDgDMuoQYULYsFxmo0RuLhDU4NSphWLc/kS1fiAx/4gA0C7r///oUqgVpoqSXs/wMAAP//Wsj5nwAAO5lJREFU7Z0FgFXV1sc33d0wwAwijSAiDYKBhIiCCYIdz9ZnFwbo8/OZ2AEoIjZSiiCCCAYGSglISSPdDDNwvv9v3TnzDpcLwgQzwDl6uXfOPbvWXv+9cu+bw9PlwssosHnzZjdnzhy3YsUKt2fPngyjynfffed+/fVXt379elewYEG3c+dOt23bNnfGGWe4Hj16uBYtWrjUaciRw+XIsJazT0Wp40vpUg6NMy0X9TA3vObNm+deeOEFN2XKFJc7d26XN29et2XLFle8eHF3zjnnuE6dOrlChQq53bt32/eUie7HwfahSJEirlixYi5fvnxWZM/uPS5n7lzZfq5yaMAhwFNm2WecvRhB1EkvgV5/7TU37LNhbvny5cZ8OXPmdBs3bnSnnXbaXgA3pg8BfkDMeXsiAM+RM4ebPXu2AZwFNE+ePAY+AA4Qr7jiCnfxxRe7AgUKGKjTuqD4nfHL8w5keDGP2f0KAR6YIX+t89/5CoZK7/XSSy+5T4d96lavXu1KlSrlduzYYZImKMFNIsAwYty0ybb09jJzywdpSks+YA61VRZfXyJPnz7dQdsffvjBAO5L8BIlSrhevXq5Cy+80BUuXNikPe0ByLS065dhDLz8v/33Qx3D4Xw+BHiA2j4T+u98lREAf00S/IMPP3DLli1zFSpUcLt27XIbNmxwp59+uknwli1bGtPmyiWVDyYM9Olo+RikKWNKKzgAeLJU7ryS2Jg9r7zyips6deo+AO/du7cBHBXdB2Wa2gxoVL5mRz1HgvQ2Omvw6RdRRwkXxiKF3Usnhd5+52337rvvuoULF7pKlSq55ORks8fr16/vevTs6c6VvYhU4gLkPvPQ7NEC9mjapglsogcg44XN/dlnn7khQ4a4uXPnmnoO7TB9WESvvPJKd/7556fazNA2vVcE4CxOUrSOAPWc8YYSPL2zfhDlP/30Uzd48GA3a9YsV7ZsWXOybd++3eXPn9916dLFXX/99a5MmTIuMTHRJBHMywUo0gqEg+jWEfsICyRAfvLJJ83BtnXrVqMlAFy7dq2rW7euu/baa93ZZ5+doWMMLlJHyryEAM9QFohdGU6gAQMGuG+++cZsQp5C2uBNR6LDiDAkUjwowWPXduTezSiArFu3zo0cOdINGjTIgI6DDcDxAvitWrVyl156qWvbtu2RS6wM6nkI8Awi5IGqITz25ptvmjqJ/U2ojCspKcnecby1bt3aNWrUyLzsPsMikdLqGKLiWFImCLL9PWOdyqB//Pb8d7/aWH3zvzvQOyFMFkwca9CVsBWLIrSEXryjEREmq1q16oGqOia+CwF+GKYZ1XvcuHFmh//000+uaNGixowwJowO8wPq0qVLm4T3AY4qmtaLeqNBRDuxgBb9XFrbjC4X3Z7fdnraI39gzZo1lkfA4ufTChoTnahZs6a79dZbXfPmzVMX0uh+HUt/hwA/DLON6o0HfcyYMW7gwIGpkgcbHHsbybNp06ZUoJsDRwDdk+J4O9QuBoEU67NfXzTQ/Gf97/f3Hiz3T2X87/13v6z/vr82DnSfsj6woR/0BeDEvHGude7c2UyfI8URdqCxpve7EODppeBBlPeZmyy5d955x33++efmSSduywtG9NX1YHV+ueC9WJ99sPjvwXJ89u8Hy0bf4zn/FXwu+jN9DZb12wre88sE64t+jkWNK1a5WPejn6M+P/KApkM4jHDjTTfd5CrFxVkYzRo4xv8JAX6YGACGhBGR5P3793eTJk0yNRNJhKrOO5cPhODn4D17KOUfn+l5D76Cz/PZfy5W2eA9/3OwvH8vWEesz7GkJfX4dfnv1MdnfBGxLn8c/nc86y8qwXYBN/TEUYnJgw/j5ptvtmgEdrlfxq/nWH0PAX4YZx5mhTEJkX300UduxIgRlm7pMzsqe5CJ+YzaCbMGAUKX+c6/R53Yn/7l3+dvPgfr9J/x7/nfs8AAjFgLDWXoA1KXvvJC46AOvx6/3uh3vy/+u18X4/LL+u985/eHzwA4OC7ucfn9YNw4Js877zzXoUMHV7JkSft+t/qZW4umH260m8foPyHAD8PEw4gwMSDxr1WrVtnGlt9//93xYuOED3T/GZgdZqZsECB8H30vWHfw2SBg/Hr98sG/+eyrzdH3o/8OtsV3wfain/X/5hn/xb3oOnyQ++MNjs//jnKAlvTTylWquAYnnOBOPPFEc6yRR0Cdfl8oEyxH2WPxCgF+GGY9yLTB5pDkf//9t1u6dKkD8HiIkVowJqrnkiVL3LBhw0yKB6WRz7hIUWz44447ztJeg3Xv73MQADzD3/SPZBF8A4SeuBcNQO7RbsWKFV1bxZeRlpTjdaDLL+e3xTtSmTRTNoswBl9r4DsWQ9pm/NjVeMNr166dKo2hAzu7ADRhMBKHfM0n2BZ1hZcEgYiSzkTMkIwZQQEmIVFM7Ut7tq6SY33dddc5Nk/AxD4DAzReLBCAoF27du6hhx5KUzd8kLLQ3HXXXZZOSztB0FGx368GDRq4O+64w8BFHw6GfXgueJGHP0hJKiSrsKj56jrPAXh8EiSsEDa88cYbzSuO+UBbvr+CRSC63mAb4ecIBUKAZyNOsJU2Zb1l2+OPAvhlyshif3MsgCMJSZph00q/fv3SPBKAw1ZW4sd4+gEOgApevs3dsGFDWwgSEhLsmYMBWfQzaAmvvvqqGz58+F4AB7SYKUhpAI50/ve//237uoP9ia4v2M/w894UCAG+Nz2y9C9fmsLAAPz777+3uC7qMADne77jBRiQ4ACcfeWPPvroXn3XU/tIOFnB+0hcXxKSIUaICbUZKYlUDV6ozLR70kknuXvvvdfMAr5PqwR/4403bLMIi5QvwekL8Wwf4KjhLDrEtfPllQTXfzxD/8Lr4CgQAvzg6HRYnkKCeyk2LQAnHZODC3wVfX8AR4I/9thje/URMMa6ogFJndj9APy2224zCQ6A/HRavw6ASJ2NGzd29913nwEcsEXX5z8ffI/uCyo6W2jZDcYi5S8mtBsN8Ntvvz1VRffrpN3wOjgKhAA/ODodtqd8EGODHwrA+/btu08fo4HFA9GAZL87AF++Yrm75ZZbzJsfC+BIcMoiwR988EGHin6wQIvuByo6AMeB6Etw+nYggEebKDwfXv9MgRDg/0yjw/pEZgM8ejAAHAdaEOAA15eq/vNIVgBOWKpPnz6uSpWqUqX/WVWOBjf1+RKcbbQsHLTFuFHN9yfBQ4D7M3Fo7yHAD41emf50VgIce5fDE2IBHOcXfSOxBIDHxVV2eQTIA51IEQvcEDAa4D54Q4BnPHuFAM94mqarxqMF4PsDN8QB4K+//rr75JNPUiU4WgShuVCCp4t99ikcAnwfkmTtjaMB4AcCN9QF4HjRP/74YwM4EhyAk7QTAjxj+S8EeMbSM921HekA/ydwQ6D0AJzy+7Qh737smAFPH9tXCPBsNv8hwPeOg/thMt9OZ7r2Afh+7mWzqc2S7oQAzxKy77/REOAhwPfPHYf+TQjwQ6dZppYIAR4CPCMZLAR4RlIzA+oKAR4CPAPYKLWKEOCppMgeH0KAhwDPSE4MAZ6R1MyAukKAhwDPADZKrSIEeCopsscHP1c8s3LRo0cZTFU95Ey2PJFfYAnWGcvDHfyezxkeJlOdB9NudD+Ohb9DgGezWT7SAJ4WYKUF4P+0Hzwt/chmU58p3QkBnilkTXul2Qng9MUHTsxcdElw//tDGXFaAE6WGxftxWoz1r1D6dPR+mwI8Gw4swCLfdL8/nWPHj3sWGD2ZwMydl/xmdROPnPaS/v27fc5sulgGR6bn/Y4somf/OHwR8CExKQN3jnNhTPbePbkk0+2vedxOnuczSFpuQC4n4vubxf1fQ+8s22ULaXlypWzvefsd+ceY9rfFtWDHW9a+nsklwkBng1nD8ABZn5u+IYbbnCrV682oAEowAboAAbHGtWoUcMWAX5sL3gdLMPTFheA4lw3fiCRi7Pe2CfOBhBAR1ts6zzjjDO0m+xhfY78KsvBtmOVpvzDYjF27Fj31FNPWbuca049LCi8s3BxVludOnVs5xpbVLnPKwR4kJL//DkE+D/T6LA84QPNbwxQ8VO4L7/8sp18AsMjuWFygM6JL1wA7qqrrnIchuhfPHMoF88DutGjR9uvoLKwACTSQ5GcAI4XbaBRdO/WPfX4pENti36xSPEDEI888oj75ZdfUjUFAM64cTBy4GLHjh1tgStfvnzqcPbX3v7upxY8Rj+EAM8mEw/AefmMyjs7qzhemAMK+W1xpLavNgPyWrVq2a9odurUaZ8jlg5lWLRFvfwsLz9z/OWXX7qVK1eaqs53gA6Q8Vvm/MhAhQoV7B6LgN/fQ2mPZxkrP/4watQo24POWHmxoKChcFxy9+7d7aeAU00B9cWuFK0j8kfk37T2I1jH0fg5BHg2mVUYHiDBqP7L79q0adPc+PHj7Qgnzk/H7uboJCQcaiySHWCk56JN+sAZ7RMnTrSfVkKSc49f7MQObtq0qf2oH88CRtT3tLRLnb60RoIztp9//tkWGH4vvUWLFq6tzl5nbICb52mTK3jybHC8/vfBe+FnOSVFvIgRFlIjSykQPQ1BhsUeB1C8AwwkJ44wVGgAEHxWf6Rr62Sy6ud8dtrCBueiDdqiTR/Q1t90tOWPNzg2FjhfgiPF9xlbls7Qkdl4CPBsMm/BVfbQLOjIAHzApBfg2YQcYTcyiAIhwDOIkFldjQ/wvaR5VncqbD/LKRACPMunIOxASIHMo0AI8MyjbVhzSIEsp0AI8CyfgrADIQUyjwIhwDOPtmHNIQWynAIhwLN8CsIOhBTIPAqEAM882oY1hxTIcgqEAM/yKQg7EFIg8ygQAjzzaBvWHFIgyykQAjzLpyDsQEiBzKNACPDMo21Yc0iBLKdACPAsn4KwAyEFMo8CIcAzj7ZhzSEFspwCIcCzfArCDoQUyDwKhADPPNqGNYcUyHIKhADP8ikIOxBSIPMoEAI882gb1hxSIMspEAI8y6cg7EBIgcyjQAjwzKNtWHNIgSynQAjwLJ+CsAMhBTKPAiHAM4+2Yc0hBbKcAiHAs3wKwg6EFMg8CoQAzzzahjWHFMhyCoQAz/IpCDsQUiDzKBACPPNoG9YcUiDLKRAC/DBMAb9aEvzlkv01mXN/Xxyj9w+WbvwSTFp+DSa9ZN1zEBVkVd/8roUA9ymRie8Hy6ghwPeehIOlW1aBKAT43vN1TPwVS1LHuheLGLGkUKx7scoeDfei6bRnj+f4McTk5CS3auUqt2PnDlOF9Fuj9sOEcXGVXMECBfRjjLGpFPtu2igV3TdqiXUvVu2x+hHrXqyy6b0XSvD0UjCqPJN+sBMfVTTmn8eKVI9FN35tdOfOXfqt8hX2E8PLly93u5P166q5crviRYu5rud2dVUqV7JfPY2mOQDKSBAdjLSOOYExbmZ032I0kXorBHgqKTLmQyxGTU/NxzLA+WHrHTt2uMmTJ7v+/V9006f/rp9R3uXy5yvg4ipXdv36ParfSW/kihQuvM+imtEgCgGeHi4+isruD+DREibWkGNJnGMZ4EjwzVu2ukmTJrmnn37azf7jD8evqObLm9+VK1fO/ffp/6YAvJDLqd8qD16HA+BpndOM7ltw3NGfQwkeTZF0/h0CPG0EjEU3AL5t+w73yy+/uP/7v/9zM2fOdLt375FKns9Vkv3dt++jrnGjRq6wJHj0ldEgiiXBQ4BHUz0L/05MTHTbtm1zO3clarVHLnoub758rlDBgi5Pnrxy5iS7LZu3uM2bNrktW7e4xJ2Jup/HFStWzJUoUULPFXK5cud2CIrdcvzkypVLn3OYRGFY/u9y7xZTImV2JSW5tWvXug0bNkitTFRrnisgh1CpUqVciZIlXd7ceVxScrLbvmO726Xv8+bN65J27bJ6C6pP+fPnd8lJyW79unWp7eXMmVMOpZzWH9r0/+Yzbfp9ABioths3buSr1L7SBnUzbtriecZhQBJtoM+WLVvsPUn9z63xFi1a1PoMiKCH34ZVHOMf6tqjvvgSlbGvWbPGbd26Vfb0TjnMkq3fRYoUsbqpn7HmVD92y6mWK8VhttPma4fbqj4B8JdfecXNnTPHJYkm9KtSpUrunnvudic2bCi6qrzGwlzlzsMcaZKgh/rn93eXxksfNjG/GiN9Yez54IFChawvxYsXt+cp45djiNB2t7fH2t4pRx9luRhnrpy5bIGBj5jzZcuW2ZxDv5Ka58oyJRhf8MroxSdYd/Tno1aC26SkAJFBL1myxP36669uweJFUvHyial3i/hVXIMGJ7iKFSq6P+b84WbPnq0JWu42rF/vdmzfbgxQtmxZFxcX54477jhXrVo1Uw0BOAwAwLhgai7+3rJtq1u5YqWbv2C+mzNnrlvz999uR+JOMcMegauQixNj1qhZ09WrW9eYet68eW7GjOlqK7dLFCiLFCnq6p9Q39WuVUt92OHGfvml+1t1wNQwJMzSpEkTV7VqVWNM7pn0Ux/8/mzevNn9IXV26tSp1k9ABSNXr17dNRQgSpcpYwCHRoAa5xX9WLFihS1KAIEy1M3iVqFCBWuP8VesWNHqigaBEUD/QBvK0geYfcHChW7JX38ZsKgXoFEWYFMX44C22NT5CxQ0gEPPpSo7c+ZsN+/P+W7x4sXu22+/dav/Xm1ONtxnJUuVdJ06dbQ5zJ8vrytburRr06aNK1aiqIEOgPMCaCy08+fPd4sWLbIxsvCxALLgsejSF+Y5ISFB8xPnKmqO8ufPZ1UwLtYL5m+d+AK6ztFCA39AdxaFOnXquDJqn/p/+PFHt3r1atFgtzvxxBPVx05GP+rxrxDgPiXS8Q6TwExMIoz83XffuQEDB7qxY8e6osWK2sQ3a9bMnXtuNzH+ce7dd991P/zwg1u1apXbuUOSRowBsyK5SmvymKwz2rd3p7ZrZ5KC+gGU1npJnt3WU5hp1uxZbsLEiWY3/inQJKoPMAcTDqcUl5SpUaOGu/Cii4zBcSC9994Qcx4BcFb8iy6+2HVTv3ZpYXj0kUcNqPQFkCOBL7zwQnfBBRdYee4xPl45WHD0PnfuXPfpp5+q3vesDFKLMZxzzjnu8ssuFwNXtEVpvRj2999/N/AwdhZBpBsXIKRN6AcNWBxOOeUUewEE7rEA8FzwguYw+G+//eYmig4/iuF9LQb68LK+qlwZLTTUxYJ1Stu2rk7denKYFRK9nJV7772hbvTnY6Q55E4pt0e0loaQoqYXLFjAms6XN49r1OhE98ADD4h+lTRmaRqqAxAuWbrETZkyxfoCXQA7EtgfG1oJY0T6x8fHO3jitNNOc9USqrkCqp/5zZkrspCzaH8iun7yySe26OaU9K5atYprq76jmU365hv3oxZVFk3qPKtzZ3fzLbdoAagbJJFqFH33upN5fxzVEtxXByHflMlT3Muvvuw+1uQwGUzwSSed5Bo3Ptkk9hCBbJc8tHk0MXk16bkEFsBDHaiZrPSA/LLLLnMdOnQwBmcJB+io3zA7NuJrr7/mxkjqwki5JZVhwhxiEIAO88OcWzZucqec2s41Prmxqa9ffTXebRczbpZkqV2rtuvVu5e7SAsAEv/pp55yH374oYGEBQXGad26tbvvvvtcLUl5JDOSBGBzofYj9QdqMfvqq69sQQBgJ5xwgrv22mut/9SDBPtSi92HH3xgXmqkK8Dj8jUBxgaA+ZvPSPJTTz3V9erVy9WrV89o4j9rBfXPypUr3fDhw+01Y8YMox3fBRcDaO+3BX0B18knN3FXX3udwH6yecXHf/21e+mll93o0Z9rQS4mzaaINYGK7mnBzJ07l4Aqs2v7Nht786ZN3CuvvuripRGwIOzRgjp33lz3gcb30Ucf2XzQB/rLIkMf/H7xTj/oE2r12Wef7S7WItu4ceNUWvDMbGl5gwe/694bMsRt2LTR5peFEw1vj+qb/cds6xPt589fwHUWwG+5+WZXWxI+eIUAD1IjjZ+ZLCYNkAJQJPjAQYPcyJEjXKnSZRCmxqCs9ps1WatWrXZ5pOrlE4BgAk9A5PIZE4YATHWlWj/00EPG4AVlu3lifGKzOyVt+/btK3CPMQmGXc9EIy12Cth5JGXy6h522jap8dj0ZcuVtf6hzibt0n2BrHr16sZc559/vsV6R4wY4d544w33559/GlOioqPaPvzwwwLFybbQAEsWJMbMWNFGBmmsSGT6jFTu2LGju7T3pa7NKW3sufHjx7s333zT/fzzz9ZHn/GpHyanHIsAfQP80BGQA0ZU4RtuuME0EezXoBR/RbYygEJacrEgUQ/1UifPstChJkNb7nHl0/cnNW7ibrvtVle7dm33i/r11oCBWoTG6TstYhLrzFm07AOs+TRvLZo1dY8/8YSrHKe4uBbomTNnuY8//si0GDQV+mGlVQlSm3YZM32zhVdjY4x8RmU/66yzbB6aNm2aykd48d//4H2N72MtuOutPEDOq7mlH5vweahOfCok4HTufJa76eabZAY2tLb9f0KA+5RIxzvMbhJIyhCg+u77KSbVRo8eLQYuZXxi0lkTiopdXXZg7dp1zEbGCbdCdjRqJkkWSI1cksI5dB9J3lsS9vzzL5AalxAB6JbNkoJTDOCACv0LRkZaA5ZaYljsV0wDQIy9O3369BTgCPhiUBgYSQvAe/To4S6UCl5adubsP+a45557zn0j9Q+gIslgwj59+rjOnTq68uUrSKWNaBBy+UklXWYLAlIfrUDiTbZ6YXfppZe6C7Ro4Jz6S318/vnn3YQJE2QbbzSGp9P4JNq0aZ0KXFR7bM6JUrXxA7DIQQf8BP/6179M0lWW9OIebf32+3T37LPPmq8DNRUAcbEgYftjmrBAAO5Zs2bZc4yJeeJVQObHtddc47p162aL0C+/TnMLFiwwH8G3k79169aus/qkUxgt6SvSE3uZsBmaVYnixUxaf/bZcJPes2UysYjTd+aOeWjUqJFpP4B76dKlthgsWDDfwE6ft+t+Qny869q1q7vkkktcpYoVzPz5Q7b3UJkN70srAOAFCxU07YH5YPGOqxxnc51fiweLRf369V17mXVVRNfoC5AfjuvoVdFFPaQrwEmShxwJ/taAt6TyjTbHCPbqDklXpCyM16VLF6mxDVx5MQp21+rVf7vpYthRo0aZNEpKTnJ5xCi8o+7edtvtrnmzJiaJl8pJ9fLLL7v3338/ouZLQmB3FxUYzzqri2vVqqWLF8PAYEh0HHmjRo3UovO9gLNG9ea2RWHjho3u+OOPdz179pSdfYGYtqwYaaN75ZVXzfZbJmaEqdav3+Cuu+5ad/lll4pRawvC8lprPIz3u+9/cK+/9rob99U4UyHx+uIE+tf117tOHTuYb2HsuPHumWefMeYGWNj1AKV79+6m/rMIIAWhz0qN7WPZnUh8nIcshrulGbWTqn7TTTe5RjJbkM4sAK++9pr7VCYQzijSTNEqykut79LlLLOzWURZoFgMlso2Hj5ipC0eOPm4AByAuOmGG129+vWkFRH52C4vuqT5m2/J4TbPtKVcufKo3vLudkn7E+Qkha65pQ1AL/o95bvv3TtSpceP/yqinWixFUKtr6edfppr2aKFq1yliiIlO43+vyuBZuKEiW7ylMmmSSEciJg0ldp/zdXXyCZvJ45wcsTONY0A38CGjRu0eBfXWHDW5THNrmPHThHNTv1hgWcxY3ErLC0nyy4N5qi8JNU8rdqeQk2eGNWTTef16NnTK1y0iFe5alWvcnxVr1ylil6TFs28Z55/zlu0ZLG3PXGnl7Rnt7drd7K3M3GXt2btOu/J//uv16Rpc69chUpexUpxeq/oVa9R03v19Tc9AdVTnNb7YerPXoeOnb1KlavYq2JcFS+hWnXvgosutu+2bN1qNKZPyeL8xF3J3thxX3mXXXGl1VWmbHmvksoUK17Sa9ykqffs8/29FStXCa971I8k7/0PP/I6n9XFq6D2/efOPudc76uvJ3g71M9kVUy923cmeoPeGey1O+10r3jJ0nq2sle6TFlr59sp34kOuzx5pb07777HSzjueK9c+Ype6bLlvNp16nm3/fsOb/FfS2zciUazXepnkmi4x/v+h6nelVdf41U/vqZXslQZr5TqrFWnrjfo7cHq52pr9/fpM7wzO3S0/pWvWMnq5vkbb77F47uNm7Z40oRk+eyxvkKLid9M8i7q0dNoVr5inNV9ctNm3rtDhnqr/17r0Y+t27Z7X4pWnbuc7VWpGm/1xlVO8Jo2b+V9PXGS1bsrebeXpJfVrfcBA9/2Tm/fwehVJT7BK1u+gif133tOdF20+K8IvTQuaXZ6JXvLRWvabNGytVeiVGkvPqGaV1G0a96ilffCiy9bH+AlaVPeAw8+5FUT7Xiueo0aqruc16pNa+/5F17wVv292lPufOSVMk76lJUXqtBReUHWaIBf3LOHV6hwIa9qghilUgUvvno177KrrvRm/DHbJgVw70zWpOsFuCj/08+/epdedoWYK8ErUbKUARxmvOe++41x/16z1vv408+8evUbePHVjjPmAFgw1GtvvOWt37jZGFr8ZAyYmLTb27x1mxh4jffiy694zVu28goXKWbMC9M0adbce77/S96q1X9L+fCMAX+d9pt3w403ecdVP96roLbLa5Gpd0ID760Bg8RUa8Xce4zB163f6D340MPWl2IlSnoAjT698OJL3vyFi7xNm7d6k76d4nXV4gDj8z2LUbvTzvDeHjzEk0ruSboKNJu8tes3eBs2bfa2CGBSWb1XX3vDa9P2VK9U6bIGmJJ6f0BtzZr9h7dOz44YOdr6FFkIKxvQW7Zq4w0bPsKTDW88Bg3oK8DdrTurRbv+L73idT23u9f21NO8dqee7p3Vpas3+N33bIFjcVEmmzdm7LhUgJcpV0E0qOI1bdbKGzd+gvq82RYOFi/qpb+PPtbPa3hiI69MufI2znIC+CW9LvWmaJEDb1oDNMe7jR7yj3hJauePOfO8u+65zxaF6sfXsP7XqVvfu/W2f3t/zl+ghS8xCuClInxUvrx3zbXXiE9+1pikt6kBnk1M0sIr/snq65hS0d98603z7qI2rZMNVUVqGt7SG6USFsinZASpVaaCynYmzJJX6ruY19RvvO/LZN8Wkoq8QTYknuRel/Qy1Xb81+PdnXfemarC48RpIgfYo48+Zup/Lnl8/QuTgTbySgWcKLsax9+YL76wmDa2afXqUtFl91180YWKz5eX8u1MTR/09ttuiLy3xJSLKfaK/+CKK66QWn2e7MoEUyGXSdV98skn3YSvJyjFc4srgMNMdvzj/frJgdXYuvDT1J9cn4f7mF27Q+FAHEp15CMgBNagYQNLrrEHRQtyBVDHi2hjB3Ho8fLKYxPj9MJ2JuSGjVpKnmTG8J//PGH+ADG1ObXwjNMfYsx588iDTZ0akDAmkyKH1OdE6wdOMNrB9kWFr1QpLuLoy6vkn6REiy0/++xz5hPZugVvfw5XXaZMv76PydHY2FR0TI28eXMrVr7GPSa6fzn2S0tawrmWW/PBHHfrdq5i7tWMpmYDqx+S/KZOo3JPkJp+7733pjre8DW0bNnS3XnHv13NmjXc4sV/ufeGDnVD9dogvsiTN5foV8xdcfnl5uMop3HiUMXDr6ptvGZ++ZOfBe/HFMCxwUeMHGUxYUkpV1ehHpxPl/burcmIOIRgTuxnuCCPJoqwE/Yf4MI5Rvx37Zq17rzzz3NXXXmlvLZxVuf9D9xvzCmpb2GetoqXP/LII3L6FDeHC4uHf9FGbtmnPytDa9Db7ygM9oGYU6CRxzohIcHCZD3laKtQvpwVkXRyY8aMcW8L5BMmTrDFgHZwKl2iRaatwLl7d5IWjEnuxRe1KUO+A7y6eLibNW/m7hfTxmsR2LhhkznrHn7kYUs8wUb2vduAAOcQjElf6a2F//RMbjmQcMZt3rTZFhYWLGLdgBv6EXb87LPPFNZ6yXwBePKLFytueQP9+vW1ftCWf9EECWsA3LaDJiVbvQCU0CJZbbwogwNrivwnOAVxTJL8Q/w5Pj5em036WqizcJHCEfKq8wsWLhLdH3WTtSAlKrKBr4Vss0cfe0z0OlM+lvJ+N1LeWXD3yAO+SU6/X9zdd9/j1qxdY9GIgkq8OVEOubvvvts1OKGe++uvJW6o/CyE3jbKIZpbzkWShq6+6iqjBUkv1MVCZmRUC9jivLLsymoVIrPaR72NVtF7XHKJV0xqdmWpp8XLlPFO79jRGyL7dpceDr4Spb4lJiebioyShV176hntZf9VkO1a3StQqLB3cc9LzIZcuHix98xzz5uajfrMq269+t4tt94u9XyT2ciogBE7GVs58tItb8as2VIL7zVVOa5KvIda3eDEk7ynn33eVHhog5qHfTn1p5+9m2+51dRO7Gbs4DNkZ2I7Yoejyj7132e8k05uYmYE/VDiiPkQFJs2Wxq1f8jQ973ja9SyZyrLpmU8VUWPchUqyG4vFXmVKOUVlT+gaPES1k7pMuVkH5c29dxXwXPlzmNq7/gJ38hUmSnToI9XRv3CT0E9NWvV8e6WyovqvL/x02/UanwSW+XLwOZnrJExJ8s82S37d4ep6J3kg6hcpaq1gYnUrHlLU9HXb9hk5Xaq7PYdO73pM2d5511wodnQ2N74LKrKpsaPsXrNOvVFZsJerxTzZsNG72uNpYXMCp5HvafsmR07eeMnTPQ2bdnizZz1h2zwPl6NmrW8svq+vNRzOVy9/v37e4qAMF2moqOmB1/2RRb9c2xJ8IEDlBn1hbzbRS2llDjy5Zdf4c6T9zh4aXb0p+fySIpwDZb0HvzOu0opnWG56yuUzHHOOV3dNQrpxEuSjBw50mLj+aXm55BoIr2znST4w30eNhUYiRe9iqOqz5k7xw15V3UPHmxxcvLgq6q+3tIokOCEyWQrWj9oEylJMgeHHyDhKikjjZDaFRoDXnTMBMJpmxW2Iz5L0sd999+vGHET68e6devdeIXGHnzwoYgEkplAPBgJWErhPC4kD/+IH+0Dkp2+kxeP1sBn4tek87Y/80wLaVGe2PdLL75kiUI7lF+PpDxXKjHhPEJGe40/UH9KcxYmo02kH2E3mqcHJsGV7ScnlqX07tyRaPXFJ8S7xySVCXkV0Fgxe7gWLVpk4crJ3042rYBsNEwmchTatm0bCZHakyn/qCE1aSbHz7/8KrPqUZkNyywbjXIk9Nx1113ywDeyqAORkg8/+tDoR7mykuDwAdoM8x6hW7CBiBTf+87h++vYArhU9JGjPjf7bqPU4foKxVymzLTevXrvTXFj7ogaiW03QFlhAHHu3HkW+lqjLLXuitVeceUVZsePGfOl6/PQg6YOUhTblxDLI2KWuLjKZssbFwVaoV42UZCUMuzTYcrDzm92HamPvZWQ0rNnD+U3l1IGXLKVZzPMJKmd/V/ob5ln+bSYEMo5W+E9YtKEZK66+mrFdGcIFEkyQ0qpD82U6vqIYuWR8BG+A9T4++9/QDHltbYYsdjVVG78KW1PcSVLAHIYXuq0uBcGJjRoAFf7qP30m5AU4auEhHgzc0jrHabF55lnnrGyhJ9KlCzhOsqEQDXGrGEB8i8jr/5BTbcMP5UH0VJq7BGARbukiPoAf0EAn64FljAjC0ZC/P8ATg47izJ2/ZKlS90TSniZoIWMlGN8JtR6vxY6QnDkDex1pfSDHIRvldLat28/xdHXWLIK4beGDU909953r6tZo6ZbLP/H++8PtcxCQpo55agh3fZq0R2fDJuIbGXaq4GsBTgrzlF5iVn2UdEv6tHDy1ewkFdN4Y2iUiPrNmzo/efpp/dSz1HVk+y1x9uhMMrajRu9xx5/wqvfoKFXsnQZqWe1zfN8x113e9N++91U6fc/+MjUtmrycsdVrir1rYLX5pR23jeTJsuru0Mq574qOt7kEaNGe93Pv0DqYAWPsqjE9U5oaKr2ylWrzdOMOonnl0uJFt5DDz/ixUlVrRpfTd7sit453bp7Qz/40NTYZgrr0EfqwYv/+H+elPpORAAPvmde8VGff2FjIdxHmIxQFuG6mTIXBGDzLlNmm9Td7TsS9bdUWBW2EJTe6Tfe7UgITaEp9W/Z8pXewEFvW1145csrpEgoslv387yFCkuhPvumCe/0hWvHzkTvj7l/SgX+xhs5+gvvk2HDFc6cIG/1XPPi08ZmeeC/+HKs17HzWaJtFQv70femUtHHfvW1PPgbU1V7TDL6QmjueNRoqehEPzAx+moO58z7M0o9j6jr9EcakvfGWwPU70hYjQhDbZk4l195tbd4yVKjxfSZs737HnjQQpvUKeehpxwDTwubpx1zovPeqrn/d2S0WfPv0SvBtWyjBousSnTZrUSXKe7Nt3CyjZRnuZRt08QJ1abNKUqsuEnbDuubZEI550LeRMp9r/zy190UnDZyChUpWsTSN++8406p9t0s3fSXX6a5G2+6UTvH1phURGSwsrMp5PrrrzPpapUG/sFh8660AtRusqmKFiuivPS10giqmore65Ke8j6XsRISTiZN2Zn21fiv3eOPPy5v8d8m3dBCGAOpkR99/LFl3tF+s+bNLQ+6nSQzhZHGZOTNmDHTPSbvM5l3JIWgBdSocbwSZ65zXc/uonvKqqMC/W+GCh/ldFytVF42buDxRkVnu2kVmQBVFYlAwv/w41R3n5x55hFHXRbdGcu1Ssjppk0uqPEIaGHJpC0OTDzeQ7QhZswXY8yxhbQmskGiD5t6SFyRXe2+l5Pthf79zcmGVGZLKFl3Tzzez/YH5NfY6TBOQrSJx5/4jyUG4QhEfd8ik6WzUk+vueZa10ypp/QX7QGPPnSJ5JHPUeruG27YsGHGM2Q/Mofkk/eRmQFdyG03FV1ZgkQ8ZEhYfv7ll19uewd4Pta1l3kS64FMvHeUAxw++18mG2EyAE5oSJEWUzdRoc/qdJbrcfFFZtOiXsMsHDTw1xJUsg9sBxpZZDA97mVSP8lH73Bme2XFFVOG1QLZbo/YriUWFVRLQFBDoRxCWexQqqiMLlJSAdnf2h/9xeefa8fXMNvNhfpdTH1C9QcUePUvAeBlSlsYBy7Eo7xTYSQljbh+Yuxp036znPayZcvZlkvUVnavwXioil3E0OR1k5stqavy6rj+VzKLG6gcb8yOiLfXM3qwg4q+1hTYC0jl5YL5Gc9fS5aan+F7Zd7ZJhqBk8oIMZ56ajuzQxUrdg/LHJg27VdT5aE7Ki653Dcoi4788kJS1UE54bctCnex6w7/w08//WRzsV3prXXq1rEswfZnnGE0IXQ2Warz889LRdfON7LdUPfJkHtcdGiuhYz5VFeN5pgQH2uhY1PIL/KKszUY+5x5Pvfcc5Te29kdrzESvgLguVQQtZ4NQoMGDpKnfLHGrc1BigSwjfWSXpdY+iw+j7nKZEu1wRVWo03m9TKZeSzmADwWmGPdU9HDch1zAB+uzRvkhLMZZFcSMcs8LiE+QWDtYCmo2KtMHE4tNmJMFBMiYZEMMC0gI757zz332HFBOKnW6VAG6mVTCNtN9ZguxYLVBrFlHG6AnZRQUhuJJY8dN9Z2n7FBAUdWYS0agKdKig0OwMuJYQi7ADSYhNNM2Cf9mlJCkTTkZhOTZuMKzj12w23VRhZSb3G+EcYroO+l6hrzAwxSX0nJJD69YvlyAyNSnJ1i7duf6VorrRbJjDRESnMgBamfIxVexL4nDg1gyK++8647XQfZtWUU/0X7AKxDZaOu1QKGpKbPhI46KYWzrRxc7P0mrROQsiCMFM0A97p18gcAKh3GwbNXX3O1Oc/YBkq8XxEE9+wzz9qzAJ7FDO2DjRzt2rZzFSpWsHCf7ThTu3PmznXvvPOOY6MOOfE4HJkP7Gi2pbZu3dqVk3bEPBH+Y56//HKs1U+fd6kfaAWtWrUSDa9yrVq3knaX03wwLPjk+W8E4JoXAG55/gI4DrdYVwjwWFRJ5z0mz8LZ+uDnoiPBPxsx3JxsbAs10MhLrQQ2i9UiZdiPDTMsW7bUNlpENmxEkhYAGLnreK1RoUmYMTVWJsBS5Zc/9d+n5MWeZGoqjiIkJLnrqJ0Vypc3JtymPGw7WEGAQNLTBzzUqJ0AvGqKio5Xtqzy4pEwrDgy72yB2ah4LdtAn3v+Obd40SIDBskcSC689YCyhZIz0AI667ABypLMwYUUxxO+cuVq9+JLL1psnZg+2gaxf+LZ5JZzIAVJHux6w1vOIQZsvsE7zq43Fjr2ll951ZXuhPraNioAMa5Zs2fbxhhAu1WJMCwcdL+w6iJiQZ49ZtHmzWximWNeccwe+sRuvFLaBHSrtI7TTz9d9KpgkhpH1tx5f9qZbF/LcYbkJ7ebU3datWylBJ6TpKVUNpDTBvXj5BstDQkHJo5M5oKLXIdKcXF2Cky146qpbznMcUZ8feHCBdYPnmUBkm3tzjvvPNtUVFp0yaWJwMnKRhMDuDnZnBbG8gZwX4JbQ1H/hACPIkhG/Lk/gA8XwAEOk43nGYZYv36jJnihbTvMkYMspAgg2MuN1EXybZfXGO8xe4QfePABSeTqFmJCzWMC8eKO1MaUt956y02VPQpgkF4cA4UUJFPLLj3L86jiVbSYIKGWKSzD92ulCRjAL1WYTHZomTJl/SKRd/2bJOny15Jlrq+SPDhMAa8yySpIb1R9ThjtprBfj4t7mHdcwzRJBfDVrGkVidJGpqpsfyXF/PiD6iAhhDGIaKiuAJOLRQPPOdth2eTC37zYRYdX+uQmTVxJjRHvNfSWs8ps6sGD3zF7mQQTaAgoATFHRUUWI059YfuttuaqgwAKYHXQlta7FOqrWrWyABXpgydtQSmtlujCIRZoSCVSvP3MB+0SgWh8UmN3j3wAx1evZtJdOefybwzXUU8vu+VafAlhsdhCZ5KK0Lxoc5MWG4BuhzuIBixM+Gg4cINDNerKZJCTVFqDVHQBfOjQ9yKJLtjgoqcvwdm/j4qOdhF9hQCPpkgG/L1fgMuphY0KAE9UbBMbEXCwiX/d+nXG5Eg0P6xDOieSmN1LLVq01KSf79q0bmNMBWPA3Lywzzcq0wspg309deqPtsOKY365ULV5CMYChJzaUqtmLdnUv2sH1qepZ8IlVKumsJ0OfND3HANk4FFJJCH/AMJdCp316fOQqemYD2R2IZ21ccKOgrruX9e58887X7ZpEbplZXGcUQdjQX3esmmLhduGyycx8ZuJljKK2gszoi0AZMriYGPxAnDlpIWQgov0ZldW0cJF1DbuSL8NZ/6Fr3VYw6jRo+yEHM5jA9y2cJimENmnj23M4sYCilnCDi+y8hLi46U9RA5RpB+58uisNgHsa6XfDlQeA+my2oBi+/ZZsViAAHoz7Qd/RumspO2yiLCgLVq4yH0hB957Q4cYyDkcAlPAtDf1GRMNjYQxYzrge1DyiuuqHIez5cNg7z+alTb8SJPKYabVgAEDbB99ZDtsZCsscXDCZJS1vAGjSPb459izwQG4VnMO0WvSpKnUsO5SM08wsHB8EeeI+SmZrMbsUa4oG4/TXLDdTj7pJFe8RORwPhYRWJvEROK5qO/EUxctWmzqKie8YOdu3brN1GDKkQBCbnZb2YJIzs+GfWZbEJFCa2VTs1+ZGDgqHwxji0eQV9QmiwWOJBJsFi5YaAyKeo593LxFc3eRyrZs2cKSYVIRbj2NAJHqAA1bVefKMTdt2jSlzf7sFsxfoL5usfRRpDZppOTjo66zvbKxxo5Ti5NkypYtLaaPnAdHfSweXNjna2VTz5FDiuOLftRRUPgzMHXwklMv/oIiWhxwjuEvIE++sVTtmlLhIwduREBNXYwLAONx/1YJL+O1BRSVGo0KwLI4mzNPAL//vvttTzZ1+P4SJD7HLv+qveXzF8y3rayUYWHgGRZzFpnSWkzjE+LlV2lsi1h8fFX1UcdHaZHBh4HXn73+aAVEPixlVr5G9vtzOAd7x+Erf8EzYmSDf455gPfu3Ute9E7KM5+vFXq+JNkKt14g5VQOJgsmZLI5tw1br5i85tyHOdj0AGdzdho50Kh/Zs/CFCqP+ozTi5xrJBhOIMpjFmBjYqu+/c7b7nNJfBJOyIGuV7eeNpv0lMf3XFsIJDj2vlIADrA5Ioh96/QFzQAHILZl/Xp1zT9g60+gNFXx0uNWBsmK04qFZYkiBgs1BiQuko2x4PFn4cE2JxyGV7lipTgBSkk2prWwuKlOv5P6g48avp2GSsYdtu1fShAhyQZQILWRioDBrzc+Pt5CYgCTi/6ZBqEPLAZEEFCTiT7goJz/J0BdZ/njOOYYe/XjqruOnTragQ8sCP+rRyq+aLREkQAOumDfOnPC/DCPLOKYahwYweGbCQnxpuHRJhfzyX4E6sTc4qQaDl00k0ePsDgg6f3js6xQNvonBLgA3q3rOWY/sjkBSQMw/RUebzspo9iSSM7k5Ig95s8hICL2O0KHF8B8Yk+ziWFgVHAkVClllZHG6i8MAIgYLWeX4Q2fNWu2qe1IvjbSEvDKdtDhDKjy1L/XpRvYuntkb7NwcCgCYMDrHbFz89pntIlYZQGklBczUSLaAfqHnhSYlHhiBxmY3S3wI205aorFB3Ufm9W844I1qjvwBtARmKtiKtdFu4DU2tJzHACBnW0SXPUSckIrIHZPWDJXbiGF5608dUbqtcpS62NB1dlpKs9Cxm425oq+sqEExxshw3zasEJ5JC+VRmiOxqLFTAsMzkDmN1n2OA3yLEces5CjuiOpKRpxJuK4jBxqKXeo1UW5iGMQEybidMUHAm2y43VUA9wm2Zgi2XYk4UUHVOzw0gEJlk5Kmip55RyvRA40Nmrw0t4HTSy8EAlTkQDBZOaWZIGFUHU5oeX5F55zI4aPtDxwVv/Cktb169WXw6ubHSSIh5ia8WiTK2526qjRbpbU+Ei4LrftJusuz+3liqu2kKrNRRt7XbphtqnaB2wwfeTCto2c1w5w6a8POPs+5Tm2wVJG+Wj6mmc0Dr1F1NWI1OJ7/uZB3m1HFs/xn26b9PZb1d/BTuJpoGl1wfoHfbh82lKeBcq/WCgYD+1Ae2iXUx5r678esuopI4BSMYClbv1vV7Auxs+2VMrymTptoVMXKJ9D9VLeL0vPmHf6SxkWSiQ13eMZ/ma+rD+6Y32jcX0P7XdrkQ36ayI9yl7/HsUAV3gMMCrOzao/RbHfN3TI4OfabAL4CKU0VQLKZZKWnKIJEzPJNvn2T2SiYEgu2JvbxvBwhC7UTRhHJ7ZY7vMz+nkdpDiMwcoPwxKWQYUrU0YhL0kHVDuccZx1xqYG+sgWSfYjJyQkuNtvv1053B31vBxsWnBiXQAtpaepX/MkXQ10PfW7A32gTMoQUx+jjkOth8LQxqgUVfif6gu2Hyx6qH3j+WB5+hS8DrU+yv5TncH6s+PnoxbgEBug8QKEU5QN9drrr0uVHqXEjDKWAEGGGdlbXc/uGgG3z4maVSbWvyJMEwG4f493GJqL+jkAgKOXccBgp5nqKIDbfmt5ZwkHRfqjuLuKIUmw8wmhwZZxcZWU7nihO/ecc83eJ8SE3ZlHEslEjLUU+x+/27G/PfBdRhAcK0+np76IvN67zdjL1N7PxPoro/uW0fXF6nN2u3dUAxxiAyocKt9++617/XXlGssLiqOLnGYyla5WiKObHFomlMXZvsSmbATYKR/0RerffBm4fKAD7HHjxln46c95f5ojyOx5qXmm9qkC6qAmbHo/ZEbmGKG39u3PMEcWTjgLT4kj9yfFA81bnfvrW/C5WJ8zmulDgMeictbdO+oBDmkBGaGVUTpRdfLk7wSsvAb6Bg0auLMV3jilTRsfeanSzAATRM0/ADxi9yWbx3jG9BluxswZbrF+coc01k3yvrKF0zzCsvFIj8XBZF5keejryetNTJ50UWK4qPbY0bzHAkw0u9DNYFejvz/Q3yHA0067A9E1u3x3TAAcG5yUS84sW7NmnTl8kOpkRBECK5dyNNLe6N57inBO7aPMCoCxgIXHGGATcuJFDNfP5sIrTd45Gy84w4sjivkBBBItCEvRh9zyKvuhniMN4NELRnZafKL7xoymp3+Uz+7XMQHwg50EX9VGGqf1MkdTUM9XRajk+1fwaSninUYt9z21fg8yG+BpHecxV84W+KhR+5MUdTs7/RkCPINnI20ApxNaAsQwqOXwTSxps7+u8vwRwGv76/6Rcf9YBHhwzCGDRfjU1wL8d+7+swSPAFSO9VRwR8pF6vynf9MD8OAcBtvJLvMZq3/ZpW9BemXXz5LghOy5/kc2PvmE/d/dfW/yjP9cWkMhquKouoLA9geGB/3AKrqoL0KTQ+FfPl39vw/0TrFA0QM9us93wTn0v0xPfX4dGfGenfuWEeM7HHX8P6uKbFrJsJywAAAAAElFTkSuQmCC;" vertex="1" parent="1">
          <mxGeometry x="970.0000000000001" y="446.5" width="83.43" height="72" as="geometry" />
        </mxCell>
        <mxCell id="97Ax9wVYBVqeigITnSwv-5" value="" style="shape=image;verticalLabelPosition=bottom;labelBackgroundColor=default;verticalAlign=top;aspect=fixed;imageAspect=0;image=data:image/png,iVBORw0KGgoAAAANSUhEUgAAAOEAAADhCAMAAAAJbSJIAAAAh1BMVEX///8AAAD29vaWlpbR0dH8/Pzf39/q6ur5+fnT09Pz8/Pa2tru7u63t7dhYWHi4uKcnJzLy8t1dXWjo6O4uLhRUVHBwcGCgoJoaGiQkJB7e3sgICCtra1bW1szMzM4ODgSEhJCQkIqKipGRkZvb28kJCQaGhoNDQ1lZWV4eHhUVFSKiopLS0ucDrQIAAANjElEQVR4nO1d6XriOgxlCwlbIez7NhRa6Ps/3y1QQJJlxU4Mab/r82+mAXwSWz5arBQKHh4eHh4eHh4eHh4eHh4eHh4eHh4eHh4e/w+Ew97obTUrFovr7aBbnjdKeY/IIYJ2b7wvKhhM4nreQ3OCavmfyu4H+24c5T2+jAj6Cy29K5blMO9BZsF8mcDvgtGf5TjcmvA7YxLkPdY0aB9N+X1jPcx7uPboWfA7Y9fMe8R2aCYZGBWzSt6DtkHNeAVC9PIetjlaafh9Y5T3wE2hWYLLz14rrjUaleH8NOAvGf8Nm9rh2J2oeGn0vpjrFn9B4qhP8NDljUi7owqCt6BZHfZOo+5uvJuOyvNK+OsUuroGT3rJErUUjpsZ+Y/VR6/2m55shY64K0uyyGjf3H7GLxp/IprveGj75JGFZlvne/lXSIKAKDUz2zg3ovg9HdrPHn8yiBktG35sYkgxfy+kjcfTMvtUzULhHXr57ph4hzNzF5ojc35n/Gs8mYSEPhpK3+gznYMdwWKe8jXaWo8jTqXQx3ltj2hn2xl8oG3vYl2xysfglKA82Sbf5vpJR2A52E168/68M33brNkr9tUXEFKA5FqiNxvMqTr7uTXdVhUq0bA2Yf2QPOwNHEiioxfzMdRdzOnsdkddrofXU2yAn18nrJNwzPITJPpQUeizl69FuKo64pVRmeU3lUP8LcXneGlKIGr2geTeSxo5UIZ6wSJx1kXUMn04JJDw05UTXlUn4eIKazdWRvonJvdGnirOUJ2s6Hj1pjzsshO0Y+jHh8R1qTniICF+U8e70V0cdNjd7dPcZkT4Dm2dcJBQ4YJJ2snDpzE2dg9iij5s6p6lRMg8vzP4SVpl78beTJ8D4Kf4TJ840AZYuKs1PlI5RSANrcVxVhp66DNLb+rFQY9JcqeNStRRKOhpxqavd+vUtTHccNf9Sxs+q73iIXJh7Rto7KLJLtfD3NGvP0efTrkx30DcijY7QU9ZItkBnBPTTEw0P7CTCBbJ7sat1zdhAQaN+byREG6K4Ze5D6NyBP+BZYkFcUO9eCNJtMpFAG4S1iic+Bmmuwaq8PqIS+Bf2LtX9pS9FA9s3+/eWPTiYe5g4IQVgBK9ffs22HqG1CaNhEkVoe8+Sd4RlPqOvag+GfG1iAIyxDYE+4ID6clQt+ogRJRhyMRaFokgUe1i9/rEzBhupQXYYOIaK+1+HsAxOGH2g4gM47bKTRgeOsICDD9VfpfR66wuiIOsHRBjxnsZ893iGTDsSgtQUBBlfpnBaeowYoNN//qxqJIZSjZ9qPjQEEt2nTXBFQ7rqVAEAhA0YKhXyI3EyPeRU2bALLlLZGA7CseczFAXIq4TBbhhOXbVqQp0hzvhhmIQaO6kZRiQ9O9yWAh5TajoBGASnO35aDQ4npaSYYwX4Lpz2XtiNhpAw3FgNCtXDGGYZYVvaSqG1Q/MYXqziUGL1Dtc8YaW4/DxB1cBqSH8NbL2UzAskQDvAK5rTV5qBJYj8IPfHTGEJo+ubXuGJPWkRKTarN+8f2w61cf/ztwQrMJfoqbNlmGN7IBlRu7EbI346vZFkKGb6gUoOyb0j3YMaepprBElPTaAPL4KOfezFBo4ZUQ2DEtEov3TZ1N1McjzFHJuaaBToYp5C4ZKrd5K8n4a7HLcttBuoU0jWAEqXTXEYMywxqWeBlLQk88FfDXATFg4YQjE1VKNkxkyrGt8JNHx0IQugS2WsnnGgAG8T/XPRgwDKcraEYo3mnxO7g4nsSjorDDrxsS3IKn4/QnviLyT9IMaK+RucFJ7CiPpjNtt4B8SiTYKFUspJrpbQvWUk1AUMDScbTaNRBEy1FJKgbg6/01FV9thgq9ix3D/cBOGeKquJWdW41c5OqUBJhRjaOwYYolGzM9WWlQVNtzhJogBbh+XxLZgqGwM1FJKSY3CnMnzuFGlYMFwttmYIbu5UxkwEUwH41e5qeIDGSQuEm3IcKuLYhNL+S7tcFUq5N6d2FJwl9Mz1IQ+L19AnvWXVNxID604UW0OnuGHHLilLpV04jIkAsBF0Qn4ec6gJzNcJZ+fpJaSc4tvIALXgaoB36i4v4VsEeEHUAlC8Rza0HPEST7GGbAFsGBcSWD6iDCEcmaqeNTfGLyPZp+n4Ps4f/NZDEGIUQF+ipmLo0DMYM9YxOcxFPwqJOIy19XAIAYzc9wyJJZyqZFlJWSZstbV1IFaYmSbW4adiJjKo6YYEF7DFJvZAcSDj+pf9ZUKaRh+m40aKcPh/SpU6JFVvMF1rS5+5wwLhT4OCczm3M4B52lWJwqWITF7PqgYGqFpmpphoU78Kq6KCNqmWUZ52gSu6j/1dsIYxR7q5vQMVZeXubMwmZLVT4SyUb2bOMMPKpuzMPxejhv0vaq9hFMr64YBk2tMIIMkc++piGwMSY6KsZfA6ZllrOErwZ9iJkSFlNr8nDDIyrBQAgGUg/oZeGez6m8Y++PibfQ02vLiZmVmWIjAd6oCOwQ2jvMJbID2V1bp0gjDOWSRnaFeTVwAbE1mTxhFD3iRRE+Fdu/VTk9jCKYpp5itgOzlUvNtNHN705hPYwhHldnBQHEGbbuEHlvG/zSG0AJmjpzi0kttTivkMrdPY1jYPP6cvfwLB8T0pospVXseQyB8sicSS3iRCVp3SGt+bOI0dgzBbecSDpZAxwBEnUTToTaxNjuGwJi6OEBDArcrwXpZ5SNQiZAdQxAfZjxXe9AVJsXfLfIRdeh/2jEENaFOihTrdIGx5a030HyEWd4iNUMnzxCLtwtsMrdfbO5JDNJbzNLMsZoLoqICOXNL8xE0BtJUUrt2DEGwxqTdSDKGdDxnyJlbIuRQPiLgksTo40kMgb5wnu+GEC0lOUK61ubx0zA86j6YFmz57hkTaTkSv2pxXY6aDlF2DMEMcVI6VNcRtMzcTkNFv45ve7cVw4RovD2IqsEQj/aSmqj1CE/d5TCdaoN2wclhy4TucYqlBNCfb//G+VBUKuUNSgqZKGcKgJnFr0iprTM9PnLH9DL0NAyhM+BAeBeQautU2T4lM7EEjzsWfMuDpmEIV41hB7wEbB5fOGcKftGIWfQ35OpHUWIahlDeu2khAQTk2axo6un0mdtChTAEnVtSMAzBH7+cEITb4VVy8/V0B02DE7FMPwVD6JK4acgTAA1yS9iR5MIPOCEXkGPSpHOLPUO0O7uZpBxD5QDMD5TMbQufn5hRy2DPEOaK3dSzM7P0At05JbgFUx9pokw5a4YoguvqJCmxNHdU2RZsj8wt7RDFdRSwZYj6YzjrqATyykSGxmx561XIRaSJJ98VwpYhmjjOmkeATZ76KvRA6O1phcqpEM1oLBmiQ7trVwShDFQ96hKvyjb4nyPOBzrDjiGugnPXWAGoZ65GPvlgtnDmwMq3qKJ577D9R6KzIh+uF5vr2fiHVex7Oew0lHB4piA3SBAbR9ytrQHDGFuurNlfBPDVutCWrsmFoFYLAbC2yQyJTds4bYEN9zXtRVyjErFNNbK2SQwjKoXd9qWDZeRSAxlyMEL0GhtY7iQwVDqpOX7PEBS7kr9SQipblWgPKGdhRYZqfM5580TopYsps0fTJ6m5HtOPD4fQIcN6/EEvfkI7M7jKExIF137I4tkJbnPBPhW03hv14q77RvvwF5PKkILqvFWVentxB5mP+AO0cdPTCeKOe5nsNG0cccWaTGkxQvuMjnvEK0sfOtAI9TeqlKQI7bM6CSNXMG0knVb6/cwJ1fLrX+9xeNrr6NCpgXQnx9rs8Wy2H5+2UeriiT3L0UM82i/FiH8ufDJZR/CpbyvB5s26I1yfbfj5xRfbM60lz1CWq2PgOLBdvqDGLkBtPz7WUxH7TLgBDkt0zV8aErJhgIO+pQKTN/h4xZsSyUG6o+Gi1/iOQs9yemKvuJq86K1PZKjvRjXWfdb/H0iPBKvyr8kLX8FGJfAo8aerbAxn3ZJsYgjC5O/D5ktf9lSnz2Mvp+80cbiyfGPgtvLyN1yGSrJiqT/V2uR3wITTzyh5lsOrZRpqufO2zJmBUsx3tEjuWQ4DPo7Sg1ZgN+PBpBKCR1mq9rt845U9exoNAbkVbnLYlmiw4qS43iymnfl83pvsBtoXc4uNkK+ow3Xg4Lh2GoRi+FfAwuQ8JDLXeb1tLeLfa5QAsdDvDiQN3/N7Fant+7f1OX4C7Pm6bWltBy76K0GKfAPghrd5GNIHAv6UDI+FoVdAYhd5v4GUPSXDwvTMBxEIL3qzkwQ+KsHAKBldIkHGFGGEJ6BZ1tbWIhhEV2ihddbjr+4Qfxq9dLMnG/62IvFe4fCaIqr1PqgImG3oiJctPUdmSeci1ySUwlqrPPrcjXfd6akXV5uBGrpfsgr9exYwEj2/V8eaI+Jc368e7Scdj7hJ/gvMqAECjbYbnObDSqPaiPudrkai/4UneIHli5vv+HVrUA97+fqN91e84NAZKvzbcSUsfs0+aAb1BFcC/swSfGDIv6CZxzFvsZ0KtApaD/G1Qr8a4cjE01q6f9PYCxGWk2I7C6GZ4N9AFHf5GN0Zm3Ie7xR3j3rMvTF9Pe61//rjgyg1WuXuYHu2r7PV26g3fPmrxD08PDw8PDw8PDw8PDw8PDw8PDw8PDw8PHLCf1uqsXEYJKHhAAAAAElFTkSuQmCC;" vertex="1" parent="1">
          <mxGeometry x="720" y="243.91" width="92.18" height="92.18" as="geometry" />
        </mxCell>
        <mxCell id="97Ax9wVYBVqeigITnSwv-6" value="&lt;b&gt;Vector DB&lt;/b&gt;" style="text;html=1;align=center;verticalAlign=middle;whiteSpace=wrap;rounded=0;" vertex="1" parent="1">
          <mxGeometry x="981.72" y="330" width="60" height="30" as="geometry" />
        </mxCell>
        <mxCell id="97Ax9wVYBVqeigITnSwv-7" value="&lt;b&gt;Posts from r/dataengineering&lt;/b&gt;" style="text;html=1;align=center;verticalAlign=middle;whiteSpace=wrap;rounded=0;" vertex="1" parent="1">
          <mxGeometry x="160" y="230" width="130" height="30" as="geometry" />
        </mxCell>
        <mxCell id="97Ax9wVYBVqeigITnSwv-11" value="" style="endArrow=classic;html=1;rounded=0;exitX=1;exitY=0.5;exitDx=0;exitDy=0;strokeWidth=2;" edge="1" parent="1">
          <mxGeometry width="50" height="50" relative="1" as="geometry">
            <mxPoint x="300.00000000000006" y="289.5" as="sourcePoint" />
            <mxPoint x="370" y="290" as="targetPoint" />
          </mxGeometry>
        </mxCell>
        <mxCell id="97Ax9wVYBVqeigITnSwv-13" value="&lt;b&gt;Documents&lt;/b&gt;&lt;div&gt;&lt;b&gt;(Post + comments)&lt;/b&gt;&lt;/div&gt;" style="text;html=1;align=center;verticalAlign=middle;whiteSpace=wrap;rounded=0;" vertex="1" parent="1">
          <mxGeometry x="400" y="160" width="130" height="30" as="geometry" />
        </mxCell>
        <mxCell id="97Ax9wVYBVqeigITnSwv-14" value="" style="endArrow=classic;html=1;rounded=0;exitX=1;exitY=0.5;exitDx=0;exitDy=0;strokeWidth=2;" edge="1" parent="1">
          <mxGeometry width="50" height="50" relative="1" as="geometry">
            <mxPoint x="600" y="289.5" as="sourcePoint" />
            <mxPoint x="700" y="290" as="targetPoint" />
          </mxGeometry>
        </mxCell>
        <mxCell id="97Ax9wVYBVqeigITnSwv-16" value="&lt;i&gt;Chunked Texts&lt;/i&gt;" style="text;html=1;align=center;verticalAlign=middle;whiteSpace=wrap;rounded=0;" vertex="1" parent="1">
          <mxGeometry x="576.5699999999999" y="260" width="130" height="30" as="geometry" />
        </mxCell>
        <mxCell id="97Ax9wVYBVqeigITnSwv-15" value="&lt;b&gt;Generate Embeddings&lt;/b&gt;" style="text;html=1;align=center;verticalAlign=middle;whiteSpace=wrap;rounded=0;" vertex="1" parent="1">
          <mxGeometry x="701.09" y="210" width="130" height="30" as="geometry" />
        </mxCell>
        <mxCell id="97Ax9wVYBVqeigITnSwv-17" value="" style="group" vertex="1" connectable="0" parent="1">
          <mxGeometry x="400" y="209.375" width="176.57" height="161.25" as="geometry" />
        </mxCell>
        <mxCell id="97Ax9wVYBVqeigITnSwv-8" value="" style="shape=image;verticalLabelPosition=bottom;labelBackgroundColor=default;verticalAlign=top;aspect=fixed;imageAspect=0;image=https://miro.medium.com/v2/resize:fit:1400/1*Hg-qLfrsfCU12xYY11akig.png;imageBorder=default;" vertex="1" parent="97Ax9wVYBVqeigITnSwv-17">
          <mxGeometry width="136.57" height="91.25" as="geometry" />
        </mxCell>
        <mxCell id="97Ax9wVYBVqeigITnSwv-9" value="" style="shape=image;verticalLabelPosition=bottom;labelBackgroundColor=default;verticalAlign=top;aspect=fixed;imageAspect=0;image=https://miro.medium.com/v2/resize:fit:1400/1*Hg-qLfrsfCU12xYY11akig.png;imageBorder=default;" vertex="1" parent="97Ax9wVYBVqeigITnSwv-17">
          <mxGeometry x="20" y="33.129999999999995" width="136.57" height="91.25" as="geometry" />
        </mxCell>
        <mxCell id="97Ax9wVYBVqeigITnSwv-10" value="" style="shape=image;verticalLabelPosition=bottom;labelBackgroundColor=default;verticalAlign=top;aspect=fixed;imageAspect=0;image=https://miro.medium.com/v2/resize:fit:1400/1*Hg-qLfrsfCU12xYY11akig.png;imageBorder=default;" vertex="1" parent="97Ax9wVYBVqeigITnSwv-17">
          <mxGeometry x="40" y="70" width="136.57" height="91.25" as="geometry" />
        </mxCell>
        <mxCell id="97Ax9wVYBVqeigITnSwv-18" value="" style="endArrow=classic;html=1;rounded=0;exitX=1;exitY=0.5;exitDx=0;exitDy=0;strokeWidth=2;edgeStyle=orthogonalEdgeStyle;entryX=0.5;entryY=0;entryDx=0;entryDy=0;" edge="1" parent="1" target="97Ax9wVYBVqeigITnSwv-6">
          <mxGeometry width="50" height="50" relative="1" as="geometry">
            <mxPoint x="840" y="290" as="sourcePoint" />
            <mxPoint x="1020" y="291" as="targetPoint" />
          </mxGeometry>
        </mxCell>
        <mxCell id="97Ax9wVYBVqeigITnSwv-21" value="&lt;b&gt;Automation with Lambda Functions&lt;sup&gt;*1&lt;/sup&gt;&lt;/b&gt;" style="text;html=1;align=center;verticalAlign=middle;whiteSpace=wrap;rounded=0;" vertex="1" parent="1">
          <mxGeometry x="146.67" y="10" width="130" height="30" as="geometry" />
        </mxCell>
        <mxCell id="97Ax9wVYBVqeigITnSwv-22" value="&lt;div style=&quot;&quot;&gt;&lt;div style=&quot;text-align: left;&quot;&gt;&lt;i&gt;Notes:&lt;/i&gt;&lt;/div&gt;&lt;div style=&quot;text-align: left;&quot;&gt;&lt;i&gt;1 - Posts retrieval frequency:&lt;/i&gt;&lt;/div&gt;&lt;div style=&quot;text-align: left;&quot;&gt;&lt;i&gt;&lt;span style=&quot;white-space: pre;&quot;&gt;&#x9;&lt;/span&gt;Daily retrieval of best monthly posts&lt;/i&gt;&lt;/div&gt;&lt;div style=&quot;text-align: left;&quot;&gt;&lt;i&gt;&lt;span style=&quot;white-space: pre;&quot;&gt;&#x9;&lt;/span&gt;Weekly retrieval of best yearly and all-time posts&lt;/i&gt;&lt;/div&gt;&lt;/div&gt;" style="text;html=1;align=center;verticalAlign=middle;whiteSpace=wrap;rounded=0;" vertex="1" parent="1">
          <mxGeometry x="63.34" y="760" width="320" height="65" as="geometry" />
        </mxCell>
      </root>
    </mxGraphModel>
  </diagram>
</mxfile>
